<?xml version="1.0" encoding="utf-8" standalone="no"?>
<!DOCTYPE svg PUBLIC "-//W3C//DTD SVG 1.1//EN"
  "http://www.w3.org/Graphics/SVG/1.1/DTD/svg11.dtd">
<svg height="360pt" version="1.1" viewBox="0 0 339.55 360" width="339.55pt" xmlns="http://www.w3.org/2000/svg" xmlns:xlink="http://www.w3.org/1999/xlink">
 <metadata>
  <rdf:RDF xmlns:cc="http://creativecommons.org/ns#" xmlns:dc="http://purl.org/dc/elements/1.1/" xmlns:rdf="http://www.w3.org/1999/02/22-rdf-syntax-ns#">
   <cc:Work>
    <dc:type rdf:resource="http://purl.org/dc/dcmitype/StillImage"/>
    <dc:date>2022-06-24T15:21:04.802828</dc:date>
    <dc:format>image/svg+xml</dc:format>
    <dc:creator>
     <cc:Agent>
      <dc:title>Matplotlib v3.4.3, https://matplotlib.org/</dc:title>
     </cc:Agent>
    </dc:creator>
   </cc:Work>
  </rdf:RDF>
 </metadata>
 <defs>
  <style type="text/css">*{stroke-linecap:butt;stroke-linejoin:round;}</style>
 </defs>
 <g id="figure_1">
  <g id="patch_1">
   <path d="M 0 360 
L 339.55 360 
L 339.55 0 
L 0 0 
z
" style="fill:#ffffff;"/>
  </g>
  <g id="axes_1">
   <g id="patch_2">
    <path d="M 154.806382 318.04 
L 273.8045 318.04 
L 273.8045 10.8 
L 154.806382 10.8 
z
" style="fill:#ffffff;"/>
   </g>
   <g id="matplotlib.axis_1">
    <g id="xtick_1">
     <g id="line2d_1">
      <defs>
       <path d="M 0 0 
L 0 3.5 
" id="m7ad37354a6" style="stroke:#262626;stroke-width:0.8;"/>
      </defs>
      <g>
       <use style="fill:#262626;stroke:#262626;stroke-width:0.8;" x="174.639401" xlink:href="#m7ad37354a6" y="318.04"/>
      </g>
     </g>
     <g id="text_1">
      <text style="fill:#262626;font-family:Arial;font-size:10px;font-stretch:normal;font-style:normal;font-weight:normal;" transform="translate(153.787258 356.916269)rotate(-30)">Signature 1</text>
     </g>
    </g>
    <g id="xtick_2">
     <g id="line2d_2">
      <g>
       <use style="fill:#262626;stroke:#262626;stroke-width:0.8;" x="214.305441" xlink:href="#m7ad37354a6" y="318.04"/>
      </g>
     </g>
     <g id="text_2">
      <text style="fill:#262626;font-family:Arial;font-size:10px;font-stretch:normal;font-style:normal;font-weight:normal;" transform="translate(193.453297 356.916269)rotate(-30)">Signature 2</text>
     </g>
    </g>
    <g id="xtick_3">
     <g id="line2d_3">
      <g>
       <use style="fill:#262626;stroke:#262626;stroke-width:0.8;" x="253.97148" xlink:href="#m7ad37354a6" y="318.04"/>
      </g>
     </g>
     <g id="text_3">
      <text style="fill:#262626;font-family:Arial;font-size:10px;font-stretch:normal;font-style:normal;font-weight:normal;" transform="translate(233.119337 356.916269)rotate(-30)">Signature 3</text>
     </g>
    </g>
   </g>
   <g id="matplotlib.axis_2">
    <g id="ytick_1">
     <g id="line2d_4">
      <defs>
       <path d="M 0 0 
L -3.5 0 
" id="mbff660a1cc" style="stroke:#262626;stroke-width:0.8;"/>
      </defs>
      <g>
       <use style="fill:#262626;stroke:#262626;stroke-width:0.8;" x="154.806382" xlink:href="#mbff660a1cc" y="298.8375"/>
      </g>
     </g>
     <g id="text_4">
      <text style="fill:#262626;font-family:Arial;font-size:10px;font-stretch:normal;font-style:normal;font-weight:normal;text-anchor:end;" transform="rotate(-0, 147.806382, 302.477344)" x="147.806382" y="302.477344">log10(total cell expr)</text>
     </g>
    </g>
    <g id="ytick_2">
     <g id="line2d_5">
      <g>
       <use style="fill:#262626;stroke:#262626;stroke-width:0.8;" x="154.806382" xlink:href="#mbff660a1cc" y="260.4325"/>
      </g>
     </g>
     <g id="text_5">
      <text style="fill:#262626;font-family:Arial;font-size:10px;font-stretch:normal;font-style:normal;font-weight:normal;text-anchor:end;" transform="rotate(-0, 147.806382, 264.072344)" x="147.806382" y="264.072344">nucleus_offset</text>
     </g>
    </g>
    <g id="ytick_3">
     <g id="line2d_6">
      <g>
       <use style="fill:#262626;stroke:#262626;stroke-width:0.8;" x="154.806382" xlink:href="#mbff660a1cc" y="222.0275"/>
      </g>
     </g>
     <g id="text_6">
      <text style="fill:#262626;font-family:Arial;font-size:10px;font-stretch:normal;font-style:normal;font-weight:normal;text-anchor:end;" transform="rotate(-0, 147.806382, 225.606406)" x="147.806382" y="225.606406">nucleus_aspect_ratio</text>
     </g>
    </g>
    <g id="ytick_4">
     <g id="line2d_7">
      <g>
       <use style="fill:#262626;stroke:#262626;stroke-width:0.8;" x="154.806382" xlink:href="#mbff660a1cc" y="183.6225"/>
      </g>
     </g>
     <g id="text_7">
      <text style="fill:#262626;font-family:Arial;font-size:10px;font-stretch:normal;font-style:normal;font-weight:normal;text-anchor:end;" transform="rotate(-0, 147.806382, 187.201406)" x="147.806382" y="187.201406">nucleus_area_ratio</text>
     </g>
    </g>
    <g id="ytick_5">
     <g id="line2d_8">
      <g>
       <use style="fill:#262626;stroke:#262626;stroke-width:0.8;" x="154.806382" xlink:href="#mbff660a1cc" y="145.2175"/>
      </g>
     </g>
     <g id="text_8">
      <text style="fill:#262626;font-family:Arial;font-size:10px;font-stretch:normal;font-style:normal;font-weight:normal;text-anchor:end;" transform="rotate(-0, 147.806382, 148.796406)" x="147.806382" y="148.796406">nucleus_area</text>
     </g>
    </g>
    <g id="ytick_6">
     <g id="line2d_9">
      <g>
       <use style="fill:#262626;stroke:#262626;stroke-width:0.8;" x="154.806382" xlink:href="#mbff660a1cc" y="106.8125"/>
      </g>
     </g>
     <g id="text_9">
      <text style="fill:#262626;font-family:Arial;font-size:10px;font-stretch:normal;font-style:normal;font-weight:normal;text-anchor:end;" transform="rotate(-0, 147.806382, 110.391406)" x="147.806382" y="110.391406">cell_aspect_ratio</text>
     </g>
    </g>
    <g id="ytick_7">
     <g id="line2d_10">
      <g>
       <use style="fill:#262626;stroke:#262626;stroke-width:0.8;" x="154.806382" xlink:href="#mbff660a1cc" y="68.4075"/>
      </g>
     </g>
     <g id="text_10">
      <text style="fill:#262626;font-family:Arial;font-size:10px;font-stretch:normal;font-style:normal;font-weight:normal;text-anchor:end;" transform="rotate(-0, 147.806382, 71.986406)" x="147.806382" y="71.986406">cell_area</text>
     </g>
    </g>
    <g id="ytick_8">
     <g id="line2d_11">
      <g>
       <use style="fill:#262626;stroke:#262626;stroke-width:0.8;" x="154.806382" xlink:href="#mbff660a1cc" y="30.0025"/>
      </g>
     </g>
     <g id="text_11">
      <text style="fill:#262626;font-family:Arial;font-size:10px;font-stretch:normal;font-style:normal;font-weight:normal;text-anchor:end;" transform="rotate(-0, 147.806382, 33.581406)" x="147.806382" y="33.581406">cell_perimeter</text>
     </g>
    </g>
   </g>
   <g id="PathCollection_1">
    <path clip-path="url(#p1dd8e57c25)" d="M 174.639401 312.979636 
C 178.38994 312.979636 181.98737 311.489531 184.639401 308.8375 
C 187.291432 306.185469 188.781537 302.588038 188.781537 298.8375 
C 188.781537 295.086962 187.291432 291.489531 184.639401 288.8375 
C 181.98737 286.185469 178.38994 284.695364 174.639401 284.695364 
C 170.888863 284.695364 167.291432 286.185469 164.639401 288.8375 
C 161.98737 291.489531 160.497266 295.086962 160.497266 298.8375 
C 160.497266 302.588038 161.98737 306.185469 164.639401 308.8375 
C 167.291432 311.489531 170.888863 312.979636 174.639401 312.979636 
z
" style="fill:#ec9374;stroke:#ffffff;stroke-width:0.772818;"/>
    <path clip-path="url(#p1dd8e57c25)" d="M 174.639401 264.751065 
C 175.784698 264.751065 176.883241 264.296033 177.693088 263.486186 
C 178.502935 262.676339 178.957966 261.577797 178.957966 260.4325 
C 178.957966 259.287203 178.502935 258.188661 177.693088 257.378814 
C 176.883241 256.568967 175.784698 256.113935 174.639401 256.113935 
C 173.494105 256.113935 172.395562 256.568967 171.585715 257.378814 
C 170.775868 258.188661 170.320837 259.287203 170.320837 260.4325 
C 170.320837 261.577797 170.775868 262.676339 171.585715 263.486186 
C 172.395562 264.296033 173.494105 264.751065 174.639401 264.751065 
z
" style="fill:#f9ebe3;stroke:#ffffff;stroke-width:0.772818;"/>
    <path clip-path="url(#p1dd8e57c25)" d="M 174.639401 231.384316 
C 177.120858 231.384316 179.501014 230.398423 181.255669 228.643768 
C 183.010324 226.889113 183.996217 224.508957 183.996217 222.0275 
C 183.996217 219.546043 183.010324 217.165887 181.255669 215.411232 
C 179.501014 213.656577 177.120858 212.670684 174.639401 212.670684 
C 172.157945 212.670684 169.777788 213.656577 168.023134 215.411232 
C 166.268479 217.165887 165.282586 219.546043 165.282586 222.0275 
C 165.282586 224.508957 166.268479 226.889113 168.023134 228.643768 
C 169.777788 230.398423 172.157945 231.384316 174.639401 231.384316 
z
" style="fill:#d2e6f0;stroke:#ffffff;stroke-width:0.772818;"/>
    <path clip-path="url(#p1dd8e57c25)" d="M 174.639401 192.979316 
C 177.120858 192.979316 179.501014 191.993423 181.255669 190.238768 
C 183.010324 188.484113 183.996217 186.103957 183.996217 183.6225 
C 183.996217 181.141043 183.010324 178.760887 181.255669 177.006232 
C 179.501014 175.251577 177.120858 174.265684 174.639401 174.265684 
C 172.157945 174.265684 169.777788 175.251577 168.023134 177.006232 
C 166.268479 178.760887 165.282586 181.141043 165.282586 183.6225 
C 165.282586 186.103957 166.268479 188.484113 168.023134 190.238768 
C 169.777788 191.993423 172.157945 192.979316 174.639401 192.979316 
z
" style="fill:#d4e6f1;stroke:#ffffff;stroke-width:0.772818;"/>
    <path clip-path="url(#p1dd8e57c25)" d="M 174.639401 154.574316 
C 177.120858 154.574316 179.501014 153.588423 181.255669 151.833768 
C 183.010324 150.079113 183.996217 147.698957 183.996217 145.2175 
C 183.996217 142.736043 183.010324 140.355887 181.255669 138.601232 
C 179.501014 136.846577 177.120858 135.860684 174.639401 135.860684 
C 172.157945 135.860684 169.777788 136.846577 168.023134 138.601232 
C 166.268479 140.355887 165.282586 142.736043 165.282586 145.2175 
C 165.282586 147.698957 166.268479 150.079113 168.023134 151.833768 
C 169.777788 153.588423 172.157945 154.574316 174.639401 154.574316 
z
" style="fill:#fddcc9;stroke:#ffffff;stroke-width:0.772818;"/>
    <path clip-path="url(#p1dd8e57c25)" d="M 174.639401 120.954636 
C 178.38994 120.954636 181.98737 119.464531 184.639401 116.8125 
C 187.291432 114.160469 188.781537 110.563038 188.781537 106.8125 
C 188.781537 103.061962 187.291432 99.464531 184.639401 96.8125 
C 181.98737 94.160469 178.38994 92.670364 174.639401 92.670364 
C 170.888863 92.670364 167.291432 94.160469 164.639401 96.8125 
C 161.98737 99.464531 160.497266 103.061962 160.497266 106.8125 
C 160.497266 110.563038 161.98737 114.160469 164.639401 116.8125 
C 167.291432 119.464531 170.888863 120.954636 174.639401 120.954636 
z
" style="fill:#7bb6d6;stroke:#ffffff;stroke-width:0.772818;"/>
    <path clip-path="url(#p1dd8e57c25)" d="M 174.639401 81.962942 
C 178.234347 81.962942 181.682536 80.534655 184.224546 77.992645 
C 186.766556 75.450635 188.194843 72.002445 188.194843 68.4075 
C 188.194843 64.812555 186.766556 61.364365 184.224546 58.822355 
C 181.682536 56.280345 178.234347 54.852058 174.639401 54.852058 
C 171.044456 54.852058 167.596267 56.280345 165.054257 58.822355 
C 162.512247 61.364365 161.08396 64.812555 161.08396 68.4075 
C 161.08396 72.002445 162.512247 75.450635 165.054257 77.992645 
C 167.596267 80.534655 171.044456 81.962942 174.639401 81.962942 
z
" style="fill:#fac8af;stroke:#ffffff;stroke-width:0.772818;"/>
    <path clip-path="url(#p1dd8e57c25)" d="M 174.639401 39.359316 
C 177.120858 39.359316 179.501014 38.373423 181.255669 36.618768 
C 183.010324 34.864113 183.996217 32.483957 183.996217 30.0025 
C 183.996217 27.521043 183.010324 25.140887 181.255669 23.386232 
C 179.501014 21.631577 177.120858 20.645684 174.639401 20.645684 
C 172.157945 20.645684 169.777788 21.631577 168.023134 23.386232 
C 166.268479 25.140887 165.282586 27.521043 165.282586 30.0025 
C 165.282586 32.483957 166.268479 34.864113 168.023134 36.618768 
C 169.777788 38.373423 172.157945 39.359316 174.639401 39.359316 
z
" style="fill:#d2e6f0;stroke:#ffffff;stroke-width:0.772818;"/>
    <path clip-path="url(#p1dd8e57c25)" d="M 214.305441 305.519566 
C 216.077545 305.519566 217.777308 304.815501 219.030375 303.562434 
C 220.283442 302.309367 220.987506 300.609604 220.987506 298.8375 
C 220.987506 297.065396 220.283442 295.365633 219.030375 294.112566 
C 217.777308 292.859499 216.077545 292.155434 214.305441 292.155434 
C 212.533336 292.155434 210.833574 292.859499 209.580507 294.112566 
C 208.32744 295.365633 207.623375 297.065396 207.623375 298.8375 
C 207.623375 300.609604 208.32744 302.309367 209.580507 303.562434 
C 210.833574 304.815501 212.533336 305.519566 214.305441 305.519566 
z
" style="fill:#ddebf2;stroke:#ffffff;stroke-width:0.772818;"/>
    <path clip-path="url(#p1dd8e57c25)" d="M 214.305441 264.751065 
C 215.450738 264.751065 216.54928 264.296033 217.359127 263.486186 
C 218.168974 262.676339 218.624005 261.577797 218.624005 260.4325 
C 218.624005 259.287203 218.168974 258.188661 217.359127 257.378814 
C 216.54928 256.568967 215.450738 256.113935 214.305441 256.113935 
C 213.160144 256.113935 212.061602 256.568967 211.251755 257.378814 
C 210.441907 258.188661 209.986876 259.287203 209.986876 260.4325 
C 209.986876 261.577797 210.441907 262.676339 211.251755 263.486186 
C 212.061602 264.296033 213.160144 264.751065 214.305441 264.751065 
z
" style="fill:#f8f1ed;stroke:#ffffff;stroke-width:0.772818;"/>
    <path clip-path="url(#p1dd8e57c25)" d="M 214.305441 231.384316 
C 216.786897 231.384316 219.167054 230.398423 220.921709 228.643768 
C 222.676363 226.889113 223.662257 224.508957 223.662257 222.0275 
C 223.662257 219.546043 222.676363 217.165887 220.921709 215.411232 
C 219.167054 213.656577 216.786897 212.670684 214.305441 212.670684 
C 211.823984 212.670684 209.443828 213.656577 207.689173 215.411232 
C 205.934518 217.165887 204.948625 219.546043 204.948625 222.0275 
C 204.948625 224.508957 205.934518 226.889113 207.689173 228.643768 
C 209.443828 230.398423 211.823984 231.384316 214.305441 231.384316 
z
" style="fill:#fddcc9;stroke:#ffffff;stroke-width:0.772818;"/>
    <path clip-path="url(#p1dd8e57c25)" d="M 214.305441 197.764636 
C 218.055979 197.764636 221.65341 196.274531 224.305441 193.6225 
C 226.957472 190.970469 228.447576 187.373038 228.447576 183.6225 
C 228.447576 179.871962 226.957472 176.274531 224.305441 173.6225 
C 221.65341 170.970469 218.055979 169.480364 214.305441 169.480364 
C 210.554903 169.480364 206.957472 170.970469 204.305441 173.6225 
C 201.65341 176.274531 200.163305 179.871962 200.163305 183.6225 
C 200.163305 187.373038 201.65341 190.970469 204.305441 193.6225 
C 206.957472 196.274531 210.554903 197.764636 214.305441 197.764636 
z
" style="fill:#f6af8e;stroke:#ffffff;stroke-width:0.772818;"/>
    <path clip-path="url(#p1dd8e57c25)" d="M 214.305441 151.06985 
C 215.857502 151.06985 217.346204 150.453209 218.443677 149.355736 
C 219.54115 148.258263 220.157791 146.769561 220.157791 145.2175 
C 220.157791 143.665439 219.54115 142.176737 218.443677 141.079264 
C 217.346204 139.981791 215.857502 139.36515 214.305441 139.36515 
C 212.753379 139.36515 211.264678 139.981791 210.167204 141.079264 
C 209.069731 142.176737 208.453091 143.665439 208.453091 145.2175 
C 208.453091 146.769561 209.069731 148.258263 210.167204 149.355736 
C 211.264678 150.453209 212.753379 151.06985 214.305441 151.06985 
z
" style="fill:#e1edf3;stroke:#ffffff;stroke-width:0.772818;"/>
    <path clip-path="url(#p1dd8e57c25)" d="M 214.305441 120.954636 
C 218.055979 120.954636 221.65341 119.464531 224.305441 116.8125 
C 226.957472 114.160469 228.447576 110.563038 228.447576 106.8125 
C 228.447576 103.061962 226.957472 99.464531 224.305441 96.8125 
C 221.65341 94.160469 218.055979 92.670364 214.305441 92.670364 
C 210.554903 92.670364 206.957472 94.160469 204.305441 96.8125 
C 201.65341 99.464531 200.163305 103.061962 200.163305 106.8125 
C 200.163305 110.563038 201.65341 114.160469 204.305441 116.8125 
C 206.957472 119.464531 210.554903 120.954636 214.305441 120.954636 
z
" style="fill:#d6604d;stroke:#ffffff;stroke-width:0.772818;"/>
    <path clip-path="url(#p1dd8e57c25)" d="M 214.305441 82.549636 
C 218.055979 82.549636 221.65341 81.059531 224.305441 78.4075 
C 226.957472 75.755469 228.447576 72.158038 228.447576 68.4075 
C 228.447576 64.656962 226.957472 61.059531 224.305441 58.4075 
C 221.65341 55.755469 218.055979 54.265364 214.305441 54.265364 
C 210.554903 54.265364 206.957472 55.755469 204.305441 58.4075 
C 201.65341 61.059531 200.163305 64.656962 200.163305 68.4075 
C 200.163305 72.158038 201.65341 75.755469 204.305441 78.4075 
C 206.957472 81.059531 210.554903 82.549636 214.305441 82.549636 
z
" style="fill:#a2cde3;stroke:#ffffff;stroke-width:0.772818;"/>
    <path clip-path="url(#p1dd8e57c25)" d="M 214.305441 37.806345 
C 216.375045 37.806345 218.360162 36.984083 219.823593 35.520652 
C 221.287024 34.057221 222.109286 32.072104 222.109286 30.0025 
C 222.109286 27.932896 221.287024 25.947779 219.823593 24.484348 
C 218.360162 23.020917 216.375045 22.198655 214.305441 22.198655 
C 212.235837 22.198655 210.25072 23.020917 208.787289 24.484348 
C 207.323858 25.947779 206.501596 27.932896 206.501596 30.0025 
C 206.501596 32.072104 207.323858 34.057221 208.787289 35.520652 
C 210.25072 36.984083 212.235837 37.806345 214.305441 37.806345 
z
" style="fill:#fce2d2;stroke:#ffffff;stroke-width:0.772818;"/>
    <path clip-path="url(#p1dd8e57c25)" d="M 253.97148 312.979636 
C 257.722018 312.979636 261.319449 311.489531 263.97148 308.8375 
C 266.623511 306.185469 268.113616 302.588038 268.113616 298.8375 
C 268.113616 295.086962 266.623511 291.489531 263.97148 288.8375 
C 261.319449 286.185469 257.722018 284.695364 253.97148 284.695364 
C 250.220942 284.695364 246.623511 286.185469 243.97148 288.8375 
C 241.319449 291.489531 239.829345 295.086962 239.829345 298.8375 
C 239.829345 302.588038 241.319449 306.185469 243.97148 308.8375 
C 246.623511 311.489531 250.220942 312.979636 253.97148 312.979636 
z
" style="fill:#e98b6e;stroke:#ffffff;stroke-width:0.772818;"/>
    <path clip-path="url(#p1dd8e57c25)" d="M 253.97148 274.574636 
C 257.722018 274.574636 261.319449 273.084531 263.97148 270.4325 
C 266.623511 267.780469 268.113616 264.183038 268.113616 260.4325 
C 268.113616 256.681962 266.623511 253.084531 263.97148 250.4325 
C 261.319449 247.780469 257.722018 246.290364 253.97148 246.290364 
C 250.220942 246.290364 246.623511 247.780469 243.97148 250.4325 
C 241.319449 253.084531 239.829345 256.681962 239.829345 260.4325 
C 239.829345 264.183038 241.319449 267.780469 243.97148 270.4325 
C 246.623511 273.084531 250.220942 274.574636 253.97148 274.574636 
z
" style="fill:#529dc8;stroke:#ffffff;stroke-width:0.772818;"/>
    <path clip-path="url(#p1dd8e57c25)" d="M 253.97148 231.384316 
C 256.452937 231.384316 258.833093 230.398423 260.587748 228.643768 
C 262.342403 226.889113 263.328296 224.508957 263.328296 222.0275 
C 263.328296 219.546043 262.342403 217.165887 260.587748 215.411232 
C 258.833093 213.656577 256.452937 212.670684 253.97148 212.670684 
C 251.490024 212.670684 249.109867 213.656577 247.355212 215.411232 
C 245.600558 217.165887 244.614665 219.546043 244.614665 222.0275 
C 244.614665 224.508957 245.600558 226.889113 247.355212 228.643768 
C 249.109867 230.398423 251.490024 231.384316 253.97148 231.384316 
z
" style="fill:#d4e6f1;stroke:#ffffff;stroke-width:0.772818;"/>
    <path clip-path="url(#p1dd8e57c25)" d="M 253.97148 195.15723 
C 257.030526 195.15723 259.964694 193.941858 262.127766 191.778786 
C 264.290839 189.615714 265.50621 186.681546 265.50621 183.6225 
C 265.50621 180.563454 264.290839 177.629286 262.127766 175.466214 
C 259.964694 173.303142 257.030526 172.08777 253.97148 172.08777 
C 250.912434 172.08777 247.978267 173.303142 245.815194 175.466214 
C 243.652122 177.629286 242.43675 180.563454 242.43675 183.6225 
C 242.43675 186.681546 243.652122 189.615714 245.815194 191.778786 
C 247.978267 193.941858 250.912434 195.15723 253.97148 195.15723 
z
" style="fill:#cae1ee;stroke:#ffffff;stroke-width:0.772818;"/>
    <path clip-path="url(#p1dd8e57c25)" d="M 253.97148 158.91604 
C 257.604376 158.91604 261.088966 157.472675 263.657811 154.903831 
C 266.226656 152.334986 267.67002 148.850395 267.67002 145.2175 
C 267.67002 141.584605 266.226656 138.100014 263.657811 135.531169 
C 261.088966 132.962325 257.604376 131.51896 253.97148 131.51896 
C 250.338585 131.51896 246.853995 132.962325 244.28515 135.531169 
C 241.716305 138.100014 240.27294 141.584605 240.27294 145.2175 
C 240.27294 148.850395 241.716305 152.334986 244.28515 154.903831 
C 246.853995 157.472675 250.338585 158.91604 253.97148 158.91604 
z
" style="fill:#f9c6ac;stroke:#ffffff;stroke-width:0.772818;"/>
    <path clip-path="url(#p1dd8e57c25)" d="M 253.97148 120.954636 
C 257.722018 120.954636 261.319449 119.464531 263.97148 116.8125 
C 266.623511 114.160469 268.113616 110.563038 268.113616 106.8125 
C 268.113616 103.061962 266.623511 99.464531 263.97148 96.8125 
C 261.319449 94.160469 257.722018 92.670364 253.97148 92.670364 
C 250.220942 92.670364 246.623511 94.160469 243.97148 96.8125 
C 241.319449 99.464531 239.829345 103.061962 239.829345 106.8125 
C 239.829345 110.563038 241.319449 114.160469 243.97148 116.8125 
C 246.623511 119.464531 250.220942 120.954636 253.97148 120.954636 
z
" style="fill:#5ca3cb;stroke:#ffffff;stroke-width:0.772818;"/>
    <path clip-path="url(#p1dd8e57c25)" d="M 253.97148 82.549636 
C 257.722018 82.549636 261.319449 81.059531 263.97148 78.4075 
C 266.623511 75.755469 268.113616 72.158038 268.113616 68.4075 
C 268.113616 64.656962 266.623511 61.059531 263.97148 58.4075 
C 261.319449 55.755469 257.722018 54.265364 253.97148 54.265364 
C 250.220942 54.265364 246.623511 55.755469 243.97148 58.4075 
C 241.319449 61.059531 239.829345 64.656962 239.829345 68.4075 
C 239.829345 72.158038 241.319449 75.755469 243.97148 78.4075 
C 246.623511 81.059531 250.220942 82.549636 253.97148 82.549636 
z
" style="fill:#f7b596;stroke:#ffffff;stroke-width:0.772818;"/>
    <path clip-path="url(#p1dd8e57c25)" d="M 253.97148 34.321065 
C 255.116777 34.321065 256.21532 33.866033 257.025167 33.056186 
C 257.835014 32.246339 258.290045 31.147797 258.290045 30.0025 
C 258.290045 28.857203 257.835014 27.758661 257.025167 26.948814 
C 256.21532 26.138967 255.116777 25.683935 253.97148 25.683935 
C 252.826184 25.683935 251.727641 26.138967 250.917794 26.948814 
C 250.107947 27.758661 249.652916 28.857203 249.652916 30.0025 
C 249.652916 31.147797 250.107947 32.246339 250.917794 33.056186 
C 251.727641 33.866033 252.826184 34.321065 253.97148 34.321065 
z
" style="fill:#e7f0f4;stroke:#ffffff;stroke-width:0.772818;"/>
   </g>
   <g id="PathCollection_2"/>
   <g id="PathCollection_3"/>
   <g id="PathCollection_4"/>
   <g id="PathCollection_5"/>
   <g id="PathCollection_6"/>
   <g id="PathCollection_7"/>
   <g id="PathCollection_8"/>
   <g id="PathCollection_9"/>
   <g id="PathCollection_10"/>
   <g id="PathCollection_11"/>
   <g id="PathCollection_12"/>
   <g id="patch_3">
    <path d="M 154.806382 318.04 
L 154.806382 10.8 
" style="fill:none;stroke:#000000;stroke-linecap:square;stroke-linejoin:miter;stroke-width:0.8;"/>
   </g>
   <g id="patch_4">
    <path d="M 273.8045 318.04 
L 273.8045 10.8 
" style="fill:none;stroke:#000000;stroke-linecap:square;stroke-linejoin:miter;stroke-width:0.8;"/>
   </g>
   <g id="patch_5">
    <path d="M 154.806382 318.04 
L 273.8045 318.04 
" style="fill:none;stroke:#000000;stroke-linecap:square;stroke-linejoin:miter;stroke-width:0.8;"/>
   </g>
   <g id="patch_6">
    <path d="M 154.806382 10.8 
L 273.8045 10.8 
" style="fill:none;stroke:#000000;stroke-linecap:square;stroke-linejoin:miter;stroke-width:0.8;"/>
   </g>
  </g>
  <g id="legend_1">
   <g id="text_12">
    <text style="fill:#262626;font-family:Arial;font-size:10px;font-stretch:normal;font-style:normal;font-weight:normal;text-anchor:start;" transform="rotate(-0, 284.426563, 97.59375)" x="284.426563" y="97.59375">r</text>
   </g>
   <g id="PathCollection_13">
    <defs>
     <path d="M 0 3 
C 0.795609 3 1.55874 2.683901 2.12132 2.12132 
C 2.683901 1.55874 3 0.795609 3 0 
C 3 -0.795609 2.683901 -1.55874 2.12132 -2.12132 
C 1.55874 -2.683901 0.795609 -3 0 -3 
C -0.795609 -3 -1.55874 -2.683901 -2.12132 -2.12132 
C -2.683901 -1.55874 -3 -0.795609 -3 0 
C -3 0.795609 -2.683901 1.55874 -2.12132 2.12132 
C -1.55874 2.683901 -0.795609 3 0 3 
z
" id="mfc8d58ac56" style="stroke:#90c4dd;"/>
    </defs>
    <g>
     <use style="fill:#90c4dd;stroke:#90c4dd;" x="286.426563" xlink:href="#mfc8d58ac56" y="109.114062"/>
    </g>
   </g>
   <g id="text_13">
    <text style="fill:#262626;font-family:Arial;font-size:10px;font-stretch:normal;font-style:normal;font-weight:normal;text-anchor:start;" transform="rotate(-0, 304.426563, 111.739062)" x="304.426563" y="111.739062">−0.4</text>
   </g>
   <g id="PathCollection_14">
    <defs>
     <path d="M 0 3 
C 0.795609 3 1.55874 2.683901 2.12132 2.12132 
C 2.683901 1.55874 3 0.795609 3 0 
C 3 -0.795609 2.683901 -1.55874 2.12132 -2.12132 
C 1.55874 -2.683901 0.795609 -3 0 -3 
C -0.795609 -3 -1.55874 -2.683901 -2.12132 -2.12132 
C -2.683901 -1.55874 -3 -0.795609 -3 0 
C -3 0.795609 -2.683901 1.55874 -2.12132 2.12132 
C -1.55874 2.683901 -0.795609 3 0 3 
z
" id="md18cd1afcd" style="stroke:#d1e5f0;"/>
    </defs>
    <g>
     <use style="fill:#d1e5f0;stroke:#d1e5f0;" x="286.426563" xlink:href="#md18cd1afcd" y="123.259375"/>
    </g>
   </g>
   <g id="text_14">
    <text style="fill:#262626;font-family:Arial;font-size:10px;font-stretch:normal;font-style:normal;font-weight:normal;text-anchor:start;" transform="rotate(-0, 304.426563, 125.884375)" x="304.426563" y="125.884375">−0.2</text>
   </g>
   <g id="PathCollection_15">
    <defs>
     <path d="M 0 3 
C 0.795609 3 1.55874 2.683901 2.12132 2.12132 
C 2.683901 1.55874 3 0.795609 3 0 
C 3 -0.795609 2.683901 -1.55874 2.12132 -2.12132 
C 1.55874 -2.683901 0.795609 -3 0 -3 
C -0.795609 -3 -1.55874 -2.683901 -2.12132 -2.12132 
C -2.683901 -1.55874 -3 -0.795609 -3 0 
C -3 0.795609 -2.683901 1.55874 -2.12132 2.12132 
C -1.55874 2.683901 -0.795609 3 0 3 
z
" id="mffa4d78383" style="stroke:#f7f6f6;"/>
    </defs>
    <g>
     <use style="fill:#f7f6f6;stroke:#f7f6f6;" x="286.426563" xlink:href="#mffa4d78383" y="137.404687"/>
    </g>
   </g>
   <g id="text_15">
    <text style="fill:#262626;font-family:Arial;font-size:10px;font-stretch:normal;font-style:normal;font-weight:normal;text-anchor:start;" transform="rotate(-0, 304.426563, 140.029687)" x="304.426563" y="140.029687">0.0</text>
   </g>
   <g id="PathCollection_16">
    <defs>
     <path d="M 0 3 
C 0.795609 3 1.55874 2.683901 2.12132 2.12132 
C 2.683901 1.55874 3 0.795609 3 0 
C 3 -0.795609 2.683901 -1.55874 2.12132 -2.12132 
C 1.55874 -2.683901 0.795609 -3 0 -3 
C -0.795609 -3 -1.55874 -2.683901 -2.12132 -2.12132 
C -2.683901 -1.55874 -3 -0.795609 -3 0 
C -3 0.795609 -2.683901 1.55874 -2.12132 2.12132 
C -1.55874 2.683901 -0.795609 3 0 3 
z
" id="m0432529c83" style="stroke:#fddbc7;"/>
    </defs>
    <g>
     <use style="fill:#fddbc7;stroke:#fddbc7;" x="286.426563" xlink:href="#m0432529c83" y="151.55"/>
    </g>
   </g>
   <g id="text_16">
    <text style="fill:#262626;font-family:Arial;font-size:10px;font-stretch:normal;font-style:normal;font-weight:normal;text-anchor:start;" transform="rotate(-0, 304.426563, 154.175)" x="304.426563" y="154.175">0.2</text>
   </g>
   <g id="PathCollection_17">
    <defs>
     <path d="M 0 3 
C 0.795609 3 1.55874 2.683901 2.12132 2.12132 
C 2.683901 1.55874 3 0.795609 3 0 
C 3 -0.795609 2.683901 -1.55874 2.12132 -2.12132 
C 1.55874 -2.683901 0.795609 -3 0 -3 
C -0.795609 -3 -1.55874 -2.683901 -2.12132 -2.12132 
C -2.683901 -1.55874 -3 -0.795609 -3 0 
C -3 0.795609 -2.683901 1.55874 -2.12132 2.12132 
C -1.55874 2.683901 -0.795609 3 0 3 
z
" id="ma119f0e327" style="stroke:#f3a481;"/>
    </defs>
    <g>
     <use style="fill:#f3a481;stroke:#f3a481;" x="286.426563" xlink:href="#ma119f0e327" y="165.695312"/>
    </g>
   </g>
   <g id="text_17">
    <text style="fill:#262626;font-family:Arial;font-size:10px;font-stretch:normal;font-style:normal;font-weight:normal;text-anchor:start;" transform="rotate(-0, 304.426563, 168.320312)" x="304.426563" y="168.320312">0.4</text>
   </g>
   <g id="text_18">
    <text style="fill:#262626;font-family:Arial;font-size:10px;font-stretch:normal;font-style:normal;font-weight:normal;text-anchor:start;" transform="rotate(-0, 284.426563, 182.5875)" x="284.426563" y="182.5875">-log10(fdr)</text>
   </g>
   <g id="PathCollection_18">
    <defs>
     <path d="M 0 6.123724 
C 1.624031 6.123724 3.181764 5.47849 4.330127 4.330127 
C 5.47849 3.181764 6.123724 1.624031 6.123724 0 
C 6.123724 -1.624031 5.47849 -3.181764 4.330127 -4.330127 
C 3.181764 -5.47849 1.624031 -6.123724 0 -6.123724 
C -1.624031 -6.123724 -3.181764 -5.47849 -4.330127 -4.330127 
C -5.47849 -3.181764 -6.123724 -1.624031 -6.123724 0 
C -6.123724 1.624031 -5.47849 3.181764 -4.330127 4.330127 
C -3.181764 5.47849 -1.624031 6.123724 0 6.123724 
z
" id="m2399e1ee33" style="stroke:#333333;"/>
    </defs>
    <g>
     <use style="fill:#333333;stroke:#333333;" x="286.426563" xlink:href="#m2399e1ee33" y="194.225"/>
    </g>
   </g>
   <g id="text_19">
    <text style="fill:#262626;font-family:Arial;font-size:10px;font-stretch:normal;font-style:normal;font-weight:normal;text-anchor:start;" transform="rotate(-0, 304.426563, 196.85)" x="304.426563" y="196.85">0.5</text>
   </g>
   <g id="PathCollection_19">
    <defs>
     <path d="M 0 8.3666 
C 2.218848 8.3666 4.347117 7.485042 5.91608 5.91608 
C 7.485042 4.347117 8.3666 2.218848 8.3666 0 
C 8.3666 -2.218848 7.485042 -4.347117 5.91608 -5.91608 
C 4.347117 -7.485042 2.218848 -8.3666 0 -8.3666 
C -2.218848 -8.3666 -4.347117 -7.485042 -5.91608 -5.91608 
C -7.485042 -4.347117 -8.3666 -2.218848 -8.3666 0 
C -8.3666 2.218848 -7.485042 4.347117 -5.91608 5.91608 
C -4.347117 7.485042 -2.218848 8.3666 0 8.3666 
z
" id="m72136c11ff" style="stroke:#333333;"/>
    </defs>
    <g>
     <use style="fill:#333333;stroke:#333333;" x="286.426563" xlink:href="#m72136c11ff" y="208.370313"/>
    </g>
   </g>
   <g id="text_20">
    <text style="fill:#262626;font-family:Arial;font-size:10px;font-stretch:normal;font-style:normal;font-weight:normal;text-anchor:start;" transform="rotate(-0, 304.426563, 210.995313)" x="304.426563" y="210.995313">1.0</text>
   </g>
   <g id="PathCollection_20">
    <defs>
     <path d="M 0 10.124228 
C 2.684977 10.124228 5.260345 9.057476 7.158911 7.158911 
C 9.057476 5.260345 10.124228 2.684977 10.124228 0 
C 10.124228 -2.684977 9.057476 -5.260345 7.158911 -7.158911 
C 5.260345 -9.057476 2.684977 -10.124228 0 -10.124228 
C -2.684977 -10.124228 -5.260345 -9.057476 -7.158911 -7.158911 
C -9.057476 -5.260345 -10.124228 -2.684977 -10.124228 0 
C -10.124228 2.684977 -9.057476 5.260345 -7.158911 7.158911 
C -5.260345 9.057476 -2.684977 10.124228 0 10.124228 
z
" id="md6442a7396" style="stroke:#333333;"/>
    </defs>
    <g>
     <use style="fill:#333333;stroke:#333333;" x="286.426563" xlink:href="#md6442a7396" y="222.515625"/>
    </g>
   </g>
   <g id="text_21">
    <text style="fill:#262626;font-family:Arial;font-size:10px;font-stretch:normal;font-style:normal;font-weight:normal;text-anchor:start;" transform="rotate(-0, 304.426563, 225.140625)" x="304.426563" y="225.140625">1.5</text>
   </g>
   <g id="PathCollection_21">
    <defs>
     <path d="M 0 11.61895 
C 3.081382 11.61895 6.036973 10.394704 8.215838 8.215838 
C 10.394704 6.036973 11.61895 3.081382 11.61895 0 
C 11.61895 -3.081382 10.394704 -6.036973 8.215838 -8.215838 
C 6.036973 -10.394704 3.081382 -11.61895 0 -11.61895 
C -3.081382 -11.61895 -6.036973 -10.394704 -8.215838 -8.215838 
C -10.394704 -6.036973 -11.61895 -3.081382 -11.61895 0 
C -11.61895 3.081382 -10.394704 6.036973 -8.215838 8.215838 
C -6.036973 10.394704 -3.081382 11.61895 0 11.61895 
z
" id="mc12a775373" style="stroke:#333333;"/>
    </defs>
    <g>
     <use style="fill:#333333;stroke:#333333;" x="286.426563" xlink:href="#mc12a775373" y="236.660938"/>
    </g>
   </g>
   <g id="text_22">
    <text style="fill:#262626;font-family:Arial;font-size:10px;font-stretch:normal;font-style:normal;font-weight:normal;text-anchor:start;" transform="rotate(-0, 304.426563, 239.285938)" x="304.426563" y="239.285938">2.0</text>
   </g>
   <g id="PathCollection_22">
    <defs>
     <path d="M 0 12.942179 
C 3.432306 12.942179 6.724496 11.578509 9.151503 9.151503 
C 11.578509 6.724496 12.942179 3.432306 12.942179 0 
C 12.942179 -3.432306 11.578509 -6.724496 9.151503 -9.151503 
C 6.724496 -11.578509 3.432306 -12.942179 0 -12.942179 
C -3.432306 -12.942179 -6.724496 -11.578509 -9.151503 -9.151503 
C -11.578509 -6.724496 -12.942179 -3.432306 -12.942179 0 
C -12.942179 3.432306 -11.578509 6.724496 -9.151503 9.151503 
C -6.724496 11.578509 -3.432306 12.942179 0 12.942179 
z
" id="md707f50e44" style="stroke:#333333;"/>
    </defs>
    <g>
     <use style="fill:#333333;stroke:#333333;" x="286.426563" xlink:href="#md707f50e44" y="250.80625"/>
    </g>
   </g>
   <g id="text_23">
    <text style="fill:#262626;font-family:Arial;font-size:10px;font-stretch:normal;font-style:normal;font-weight:normal;text-anchor:start;" transform="rotate(-0, 304.426563, 253.43125)" x="304.426563" y="253.43125">2.5</text>
   </g>
   <g id="PathCollection_23">
    <defs>
     <path d="M 0 14.142136 
C 3.750538 14.142136 7.347969 12.652031 10 10 
C 12.652031 7.347969 14.142136 3.750538 14.142136 0 
C 14.142136 -3.750538 12.652031 -7.347969 10 -10 
C 7.347969 -12.652031 3.750538 -14.142136 0 -14.142136 
C -3.750538 -14.142136 -7.347969 -12.652031 -10 -10 
C -12.652031 -7.347969 -14.142136 -3.750538 -14.142136 0 
C -14.142136 3.750538 -12.652031 7.347969 -10 10 
C -7.347969 12.652031 -3.750538 14.142136 0 14.142136 
z
" id="m375c8c2df1" style="stroke:#333333;"/>
    </defs>
    <g>
     <use style="fill:#333333;stroke:#333333;" x="286.426563" xlink:href="#m375c8c2df1" y="264.951563"/>
    </g>
   </g>
   <g id="text_24">
    <text style="fill:#262626;font-family:Arial;font-size:10px;font-stretch:normal;font-style:normal;font-weight:normal;text-anchor:start;" transform="rotate(-0, 304.426563, 267.576563)" x="304.426563" y="267.576563">3.0</text>
   </g>
  </g>
 </g>
 <defs>
  <clipPath id="p1dd8e57c25">
   <rect height="307.24" width="118.998118" x="154.806382" y="10.8"/>
  </clipPath>
 </defs>
</svg>
