<?xml version="1.0" encoding="utf-8" standalone="no"?>
<!DOCTYPE svg PUBLIC "-//W3C//DTD SVG 1.1//EN"
  "http://www.w3.org/Graphics/SVG/1.1/DTD/svg11.dtd">
<svg height="360pt" version="1.1" viewBox="0 0 350.35 360" width="350.35pt" xmlns="http://www.w3.org/2000/svg" xmlns:xlink="http://www.w3.org/1999/xlink">
 <metadata>
  <rdf:RDF xmlns:cc="http://creativecommons.org/ns#" xmlns:dc="http://purl.org/dc/elements/1.1/" xmlns:rdf="http://www.w3.org/1999/02/22-rdf-syntax-ns#">
   <cc:Work>
    <dc:type rdf:resource="http://purl.org/dc/dcmitype/StillImage"/>
    <dc:date>2022-06-24T15:08:58.207363</dc:date>
    <dc:format>image/svg+xml</dc:format>
    <dc:creator>
     <cc:Agent>
      <dc:title>Matplotlib v3.4.3, https://matplotlib.org/</dc:title>
     </cc:Agent>
    </dc:creator>
   </cc:Work>
  </rdf:RDF>
 </metadata>
 <defs>
  <style type="text/css">*{stroke-linecap:butt;stroke-linejoin:round;}</style>
 </defs>
 <g id="figure_1">
  <g id="patch_1">
   <path d="M 0 360 
L 350.35 360 
L 350.35 0 
L 0 0 
z
" style="fill:#ffffff;"/>
  </g>
  <g id="axes_1">
   <g id="patch_2">
    <path d="M 169.615627 318.04 
L 284.4965 318.04 
L 284.4965 10.8 
L 169.615627 10.8 
z
" style="fill:#ffffff;"/>
   </g>
   <g id="matplotlib.axis_1">
    <g id="xtick_1">
     <g id="line2d_1">
      <defs>
       <path d="M 0 0 
L 0 3.5 
" id="m311278eda7" style="stroke:#262626;stroke-width:0.8;"/>
      </defs>
      <g>
       <use style="fill:#262626;stroke:#262626;stroke-width:0.8;" x="188.762439" xlink:href="#m311278eda7" y="318.04"/>
      </g>
     </g>
     <g id="text_1">
      <text style="fill:#262626;font-family:Arial;font-size:10px;font-stretch:normal;font-style:normal;font-weight:normal;" transform="translate(167.910296 356.916269)rotate(-30)">Signature 1</text>
     </g>
    </g>
    <g id="xtick_2">
     <g id="line2d_2">
      <g>
       <use style="fill:#262626;stroke:#262626;stroke-width:0.8;" x="227.056063" xlink:href="#m311278eda7" y="318.04"/>
      </g>
     </g>
     <g id="text_2">
      <text style="fill:#262626;font-family:Arial;font-size:10px;font-stretch:normal;font-style:normal;font-weight:normal;" transform="translate(206.20392 356.916269)rotate(-30)">Signature 2</text>
     </g>
    </g>
    <g id="xtick_3">
     <g id="line2d_3">
      <g>
       <use style="fill:#262626;stroke:#262626;stroke-width:0.8;" x="265.349688" xlink:href="#m311278eda7" y="318.04"/>
      </g>
     </g>
     <g id="text_3">
      <text style="fill:#262626;font-family:Arial;font-size:10px;font-stretch:normal;font-style:normal;font-weight:normal;" transform="translate(244.497544 356.916269)rotate(-30)">Signature 3</text>
     </g>
    </g>
   </g>
   <g id="matplotlib.axis_2">
    <g id="ytick_1">
     <g id="line2d_4">
      <defs>
       <path d="M 0 0 
L -3.5 0 
" id="m872347363e" style="stroke:#262626;stroke-width:0.8;"/>
      </defs>
      <g>
       <use style="fill:#262626;stroke:#262626;stroke-width:0.8;" x="169.615627" xlink:href="#m872347363e" y="292.436667"/>
      </g>
     </g>
     <g id="text_4">
      <text style="fill:#262626;font-family:Arial;font-size:10px;font-stretch:normal;font-style:normal;font-weight:normal;text-anchor:end;" transform="rotate(-0, 162.615627, 296.07651)" x="162.615627" y="296.07651">log10(total gene counts)</text>
     </g>
    </g>
    <g id="ytick_2">
     <g id="line2d_5">
      <g>
       <use style="fill:#262626;stroke:#262626;stroke-width:0.8;" x="169.615627" xlink:href="#m872347363e" y="241.23"/>
      </g>
     </g>
     <g id="text_5">
      <text style="fill:#262626;font-family:Arial;font-size:10px;font-stretch:normal;font-style:normal;font-weight:normal;text-anchor:end;" transform="rotate(-0, 162.615627, 244.808906)" x="162.615627" y="244.808906">nuclear_edge</text>
     </g>
    </g>
    <g id="ytick_3">
     <g id="line2d_6">
      <g>
       <use style="fill:#262626;stroke:#262626;stroke-width:0.8;" x="169.615627" xlink:href="#m872347363e" y="190.023333"/>
      </g>
     </g>
     <g id="text_6">
      <text style="fill:#262626;font-family:Arial;font-size:10px;font-stretch:normal;font-style:normal;font-weight:normal;text-anchor:end;" transform="rotate(-0, 162.615627, 193.60224)" x="162.615627" y="193.60224">nuclear</text>
     </g>
    </g>
    <g id="ytick_4">
     <g id="line2d_7">
      <g>
       <use style="fill:#262626;stroke:#262626;stroke-width:0.8;" x="169.615627" xlink:href="#m872347363e" y="138.816667"/>
      </g>
     </g>
     <g id="text_7">
      <text style="fill:#262626;font-family:Arial;font-size:10px;font-stretch:normal;font-style:normal;font-weight:normal;text-anchor:end;" transform="rotate(-0, 162.615627, 142.395573)" x="162.615627" y="142.395573">none</text>
     </g>
    </g>
    <g id="ytick_5">
     <g id="line2d_8">
      <g>
       <use style="fill:#262626;stroke:#262626;stroke-width:0.8;" x="169.615627" xlink:href="#m872347363e" y="87.61"/>
      </g>
     </g>
     <g id="text_8">
      <text style="fill:#262626;font-family:Arial;font-size:10px;font-stretch:normal;font-style:normal;font-weight:normal;text-anchor:end;" transform="rotate(-0, 162.615627, 91.188906)" x="162.615627" y="91.188906">cytoplasmic</text>
     </g>
    </g>
    <g id="ytick_6">
     <g id="line2d_9">
      <g>
       <use style="fill:#262626;stroke:#262626;stroke-width:0.8;" x="169.615627" xlink:href="#m872347363e" y="36.403333"/>
      </g>
     </g>
     <g id="text_9">
      <text style="fill:#262626;font-family:Arial;font-size:10px;font-stretch:normal;font-style:normal;font-weight:normal;text-anchor:end;" transform="rotate(-0, 162.615627, 39.98224)" x="162.615627" y="39.98224">cell_edge</text>
     </g>
    </g>
   </g>
   <g id="PathCollection_1">
    <path clip-path="url(#p740f41f3e0)" d="M 188.762439 306.578802 
C 192.512977 306.578802 196.110408 305.088698 198.762439 302.436667 
C 201.41447 299.784636 202.904575 296.187205 202.904575 292.436667 
C 202.904575 288.686128 201.41447 285.088698 198.762439 282.436667 
C 196.110408 279.784636 192.512977 278.294531 188.762439 278.294531 
C 185.011901 278.294531 181.41447 279.784636 178.762439 282.436667 
C 176.110408 285.088698 174.620303 288.686128 174.620303 292.436667 
C 174.620303 296.187205 176.110408 299.784636 178.762439 302.436667 
C 181.41447 305.088698 185.011901 306.578802 188.762439 306.578802 
z
" style="fill:#c43b3c;stroke:#ffffff;stroke-width:2.262742;"/>
    <path clip-path="url(#p740f41f3e0)" d="M 188.762439 255.372136 
C 192.512977 255.372136 196.110408 253.882031 198.762439 251.23 
C 201.41447 248.577969 202.904575 244.980538 202.904575 241.23 
C 202.904575 237.479462 201.41447 233.882031 198.762439 231.23 
C 196.110408 228.577969 192.512977 227.087864 188.762439 227.087864 
C 185.011901 227.087864 181.41447 228.577969 178.762439 231.23 
C 176.110408 233.882031 174.620303 237.479462 174.620303 241.23 
C 174.620303 244.980538 176.110408 248.577969 178.762439 251.23 
C 181.41447 253.882031 185.011901 255.372136 188.762439 255.372136 
z
" style="fill:#f9c4a9;stroke:#ffffff;stroke-width:2.262742;"/>
    <path clip-path="url(#p740f41f3e0)" d="M 188.762439 204.165469 
C 192.512977 204.165469 196.110408 202.675364 198.762439 200.023333 
C 201.41447 197.371302 202.904575 193.773872 202.904575 190.023333 
C 202.904575 186.272795 201.41447 182.675364 198.762439 180.023333 
C 196.110408 177.371302 192.512977 175.881198 188.762439 175.881198 
C 185.011901 175.881198 181.41447 177.371302 178.762439 180.023333 
C 176.110408 182.675364 174.620303 186.272795 174.620303 190.023333 
C 174.620303 193.773872 176.110408 197.371302 178.762439 200.023333 
C 181.41447 202.675364 185.011901 204.165469 188.762439 204.165469 
z
" style="fill:#acd2e5;stroke:#ffffff;stroke-width:2.262742;"/>
    <path clip-path="url(#p740f41f3e0)" d="M 188.762439 152.958802 
C 192.512977 152.958802 196.110408 151.468698 198.762439 148.816667 
C 201.41447 146.164636 202.904575 142.567205 202.904575 138.816667 
C 202.904575 135.066128 201.41447 131.468698 198.762439 128.816667 
C 196.110408 126.164636 192.512977 124.674531 188.762439 124.674531 
C 185.011901 124.674531 181.41447 126.164636 178.762439 128.816667 
C 176.110408 131.468698 174.620303 135.066128 174.620303 138.816667 
C 174.620303 142.567205 176.110408 146.164636 178.762439 148.816667 
C 181.41447 151.468698 185.011901 152.958802 188.762439 152.958802 
z
" style="fill:#67001f;stroke:#ffffff;stroke-width:2.262742;"/>
    <path clip-path="url(#p740f41f3e0)" d="M 188.762439 101.752136 
C 192.512977 101.752136 196.110408 100.262031 198.762439 97.61 
C 201.41447 94.957969 202.904575 91.360538 202.904575 87.61 
C 202.904575 83.859462 201.41447 80.262031 198.762439 77.61 
C 196.110408 74.957969 192.512977 73.467864 188.762439 73.467864 
C 185.011901 73.467864 181.41447 74.957969 178.762439 77.61 
C 176.110408 80.262031 174.620303 83.859462 174.620303 87.61 
C 174.620303 91.360538 176.110408 94.957969 178.762439 97.61 
C 181.41447 100.262031 185.011901 101.752136 188.762439 101.752136 
z
" style="fill:#b72230;stroke:#ffffff;stroke-width:2.262742;"/>
    <path clip-path="url(#p740f41f3e0)" d="M 188.762439 50.545469 
C 192.512977 50.545469 196.110408 49.055364 198.762439 46.403333 
C 201.41447 43.751302 202.904575 40.153872 202.904575 36.403333 
C 202.904575 32.652795 201.41447 29.055364 198.762439 26.403333 
C 196.110408 23.751302 192.512977 22.261198 188.762439 22.261198 
C 185.011901 22.261198 181.41447 23.751302 178.762439 26.403333 
C 176.110408 29.055364 174.620303 32.652795 174.620303 36.403333 
C 174.620303 40.153872 176.110408 43.751302 178.762439 46.403333 
C 181.41447 49.055364 185.011901 50.545469 188.762439 50.545469 
z
" style="fill:#870a24;stroke:#ffffff;stroke-width:2.262742;"/>
    <path clip-path="url(#p740f41f3e0)" d="M 227.056063 306.578802 
C 230.806602 306.578802 234.404032 305.088698 237.056063 302.436667 
C 239.708094 299.784636 241.198199 296.187205 241.198199 292.436667 
C 241.198199 288.686128 239.708094 285.088698 237.056063 282.436667 
C 234.404032 279.784636 230.806602 278.294531 227.056063 278.294531 
C 223.305525 278.294531 219.708094 279.784636 217.056063 282.436667 
C 214.404032 285.088698 212.913928 288.686128 212.913928 292.436667 
C 212.913928 296.187205 214.404032 299.784636 217.056063 302.436667 
C 219.708094 305.088698 223.305525 306.578802 227.056063 306.578802 
z
" style="fill:#c13639;stroke:#ffffff;stroke-width:2.262742;"/>
    <path clip-path="url(#p740f41f3e0)" d="M 227.056063 255.372136 
C 230.806602 255.372136 234.404032 253.882031 237.056063 251.23 
C 239.708094 248.577969 241.198199 244.980538 241.198199 241.23 
C 241.198199 237.479462 239.708094 233.882031 237.056063 231.23 
C 234.404032 228.577969 230.806602 227.087864 227.056063 227.087864 
C 223.305525 227.087864 219.708094 228.577969 217.056063 231.23 
C 214.404032 233.882031 212.913928 237.479462 212.913928 241.23 
C 212.913928 244.980538 214.404032 248.577969 217.056063 251.23 
C 219.708094 253.882031 223.305525 255.372136 227.056063 255.372136 
z
" style="fill:#fac8af;stroke:#ffffff;stroke-width:2.262742;"/>
    <path clip-path="url(#p740f41f3e0)" d="M 227.056063 204.165469 
C 230.806602 204.165469 234.404032 202.675364 237.056063 200.023333 
C 239.708094 197.371302 241.198199 193.773872 241.198199 190.023333 
C 241.198199 186.272795 239.708094 182.675364 237.056063 180.023333 
C 234.404032 177.371302 230.806602 175.881198 227.056063 175.881198 
C 223.305525 175.881198 219.708094 177.371302 217.056063 180.023333 
C 214.404032 182.675364 212.913928 186.272795 212.913928 190.023333 
C 212.913928 193.773872 214.404032 197.371302 217.056063 200.023333 
C 219.708094 202.675364 223.305525 204.165469 227.056063 204.165469 
z
" style="fill:#93c6de;stroke:#ffffff;stroke-width:2.262742;"/>
    <path clip-path="url(#p740f41f3e0)" d="M 227.056063 152.958802 
C 230.806602 152.958802 234.404032 151.468698 237.056063 148.816667 
C 239.708094 146.164636 241.198199 142.567205 241.198199 138.816667 
C 241.198199 135.066128 239.708094 131.468698 237.056063 128.816667 
C 234.404032 126.164636 230.806602 124.674531 227.056063 124.674531 
C 223.305525 124.674531 219.708094 126.164636 217.056063 128.816667 
C 214.404032 131.468698 212.913928 135.066128 212.913928 138.816667 
C 212.913928 142.567205 214.404032 146.164636 217.056063 148.816667 
C 219.708094 151.468698 223.305525 152.958802 227.056063 152.958802 
z
" style="fill:#8a0b25;stroke:#ffffff;stroke-width:2.262742;"/>
    <path clip-path="url(#p740f41f3e0)" d="M 227.056063 101.752136 
C 230.806602 101.752136 234.404032 100.262031 237.056063 97.61 
C 239.708094 94.957969 241.198199 91.360538 241.198199 87.61 
C 241.198199 83.859462 239.708094 80.262031 237.056063 77.61 
C 234.404032 74.957969 230.806602 73.467864 227.056063 73.467864 
C 223.305525 73.467864 219.708094 74.957969 217.056063 77.61 
C 214.404032 80.262031 212.913928 83.859462 212.913928 87.61 
C 212.913928 91.360538 214.404032 94.957969 217.056063 97.61 
C 219.708094 100.262031 223.305525 101.752136 227.056063 101.752136 
z
" style="fill:#b82531;stroke:#ffffff;stroke-width:2.262742;"/>
    <path clip-path="url(#p740f41f3e0)" d="M 227.056063 50.545469 
C 230.806602 50.545469 234.404032 49.055364 237.056063 46.403333 
C 239.708094 43.751302 241.198199 40.153872 241.198199 36.403333 
C 241.198199 32.652795 239.708094 29.055364 237.056063 26.403333 
C 234.404032 23.751302 230.806602 22.261198 227.056063 22.261198 
C 223.305525 22.261198 219.708094 23.751302 217.056063 26.403333 
C 214.404032 29.055364 212.913928 32.652795 212.913928 36.403333 
C 212.913928 40.153872 214.404032 43.751302 217.056063 46.403333 
C 219.708094 49.055364 223.305525 50.545469 227.056063 50.545469 
z
" style="fill:#6a011f;stroke:#ffffff;stroke-width:2.262742;"/>
    <path clip-path="url(#p740f41f3e0)" d="M 265.349688 306.578802 
C 269.100226 306.578802 272.697657 305.088698 275.349688 302.436667 
C 278.001719 299.784636 279.491823 296.187205 279.491823 292.436667 
C 279.491823 288.686128 278.001719 285.088698 275.349688 282.436667 
C 272.697657 279.784636 269.100226 278.294531 265.349688 278.294531 
C 261.59915 278.294531 258.001719 279.784636 255.349688 282.436667 
C 252.697657 285.088698 251.207552 288.686128 251.207552 292.436667 
C 251.207552 296.187205 252.697657 299.784636 255.349688 302.436667 
C 258.001719 305.088698 261.59915 306.578802 265.349688 306.578802 
z
" style="fill:#870a24;stroke:#ffffff;stroke-width:2.262742;"/>
    <path clip-path="url(#p740f41f3e0)" d="M 265.349688 255.372136 
C 269.100226 255.372136 272.697657 253.882031 275.349688 251.23 
C 278.001719 248.577969 279.491823 244.980538 279.491823 241.23 
C 279.491823 237.479462 278.001719 233.882031 275.349688 231.23 
C 272.697657 228.577969 269.100226 227.087864 265.349688 227.087864 
C 261.59915 227.087864 258.001719 228.577969 255.349688 231.23 
C 252.697657 233.882031 251.207552 237.479462 251.207552 241.23 
C 251.207552 244.980538 252.697657 248.577969 255.349688 251.23 
C 258.001719 253.882031 261.59915 255.372136 265.349688 255.372136 
z
" style="fill:#b82531;stroke:#ffffff;stroke-width:2.262742;"/>
    <path clip-path="url(#p740f41f3e0)" d="M 265.349688 204.165469 
C 269.100226 204.165469 272.697657 202.675364 275.349688 200.023333 
C 278.001719 197.371302 279.491823 193.773872 279.491823 190.023333 
C 279.491823 186.272795 278.001719 182.675364 275.349688 180.023333 
C 272.697657 177.371302 269.100226 175.881198 265.349688 175.881198 
C 261.59915 175.881198 258.001719 177.371302 255.349688 180.023333 
C 252.697657 182.675364 251.207552 186.272795 251.207552 190.023333 
C 251.207552 193.773872 252.697657 197.371302 255.349688 200.023333 
C 258.001719 202.675364 261.59915 204.165469 265.349688 204.165469 
z
" style="fill:#fbe3d4;stroke:#ffffff;stroke-width:2.262742;"/>
    <path clip-path="url(#p740f41f3e0)" d="M 265.349688 152.958802 
C 269.100226 152.958802 272.697657 151.468698 275.349688 148.816667 
C 278.001719 146.164636 279.491823 142.567205 279.491823 138.816667 
C 279.491823 135.066128 278.001719 131.468698 275.349688 128.816667 
C 272.697657 126.164636 269.100226 124.674531 265.349688 124.674531 
C 261.59915 124.674531 258.001719 126.164636 255.349688 128.816667 
C 252.697657 131.468698 251.207552 135.066128 251.207552 138.816667 
C 251.207552 142.567205 252.697657 146.164636 255.349688 148.816667 
C 258.001719 151.468698 261.59915 152.958802 265.349688 152.958802 
z
" style="fill:#cc4c44;stroke:#ffffff;stroke-width:2.262742;"/>
    <path clip-path="url(#p740f41f3e0)" d="M 265.349688 101.752136 
C 269.100226 101.752136 272.697657 100.262031 275.349688 97.61 
C 278.001719 94.957969 279.491823 91.360538 279.491823 87.61 
C 279.491823 83.859462 278.001719 80.262031 275.349688 77.61 
C 272.697657 74.957969 269.100226 73.467864 265.349688 73.467864 
C 261.59915 73.467864 258.001719 74.957969 255.349688 77.61 
C 252.697657 80.262031 251.207552 83.859462 251.207552 87.61 
C 251.207552 91.360538 252.697657 94.957969 255.349688 97.61 
C 258.001719 100.262031 261.59915 101.752136 265.349688 101.752136 
z
" style="fill:#870a24;stroke:#ffffff;stroke-width:2.262742;"/>
    <path clip-path="url(#p740f41f3e0)" d="M 265.349688 50.545469 
C 269.100226 50.545469 272.697657 49.055364 275.349688 46.403333 
C 278.001719 43.751302 279.491823 40.153872 279.491823 36.403333 
C 279.491823 32.652795 278.001719 29.055364 275.349688 26.403333 
C 272.697657 23.751302 269.100226 22.261198 265.349688 22.261198 
C 261.59915 22.261198 258.001719 23.751302 255.349688 26.403333 
C 252.697657 29.055364 251.207552 32.652795 251.207552 36.403333 
C 251.207552 40.153872 252.697657 43.751302 255.349688 46.403333 
C 258.001719 49.055364 261.59915 50.545469 265.349688 50.545469 
z
" style="fill:#db6b55;stroke:#ffffff;stroke-width:2.262742;"/>
   </g>
   <g id="PathCollection_2"/>
   <g id="PathCollection_3"/>
   <g id="PathCollection_4"/>
   <g id="PathCollection_5"/>
   <g id="PathCollection_6"/>
   <g id="PathCollection_7"/>
   <g id="patch_3">
    <path d="M 169.615627 318.04 
L 169.615627 10.8 
" style="fill:none;stroke:#000000;stroke-linecap:square;stroke-linejoin:miter;stroke-width:0.8;"/>
   </g>
   <g id="patch_4">
    <path d="M 284.4965 318.04 
L 284.4965 10.8 
" style="fill:none;stroke:#000000;stroke-linecap:square;stroke-linejoin:miter;stroke-width:0.8;"/>
   </g>
   <g id="patch_5">
    <path d="M 169.615627 318.04 
L 284.4965 318.04 
" style="fill:none;stroke:#000000;stroke-linecap:square;stroke-linejoin:miter;stroke-width:0.8;"/>
   </g>
   <g id="patch_6">
    <path d="M 169.615627 10.8 
L 284.4965 10.8 
" style="fill:none;stroke:#000000;stroke-linecap:square;stroke-linejoin:miter;stroke-width:0.8;"/>
   </g>
  </g>
  <g id="legend_1">
   <g id="text_10">
    <text style="fill:#262626;font-family:Arial;font-size:10px;font-stretch:normal;font-style:normal;font-weight:normal;text-anchor:start;" transform="rotate(-0, 295.226562, 132.957031)" x="295.226562" y="132.957031">r</text>
   </g>
   <g id="PathCollection_8">
    <defs>
     <path d="M 0 3 
C 0.795609 3 1.55874 2.683901 2.12132 2.12132 
C 2.683901 1.55874 3 0.795609 3 0 
C 3 -0.795609 2.683901 -1.55874 2.12132 -2.12132 
C 1.55874 -2.683901 0.795609 -3 0 -3 
C -0.795609 -3 -1.55874 -2.683901 -2.12132 -2.12132 
C -2.683901 -1.55874 -3 -0.795609 -3 0 
C -3 0.795609 -2.683901 1.55874 -2.12132 2.12132 
C -1.55874 2.683901 -0.795609 3 0 3 
z
" id="m0adb437f23" style="stroke:#c2ddec;"/>
    </defs>
    <g>
     <use style="fill:#c2ddec;stroke:#c2ddec;" x="297.226562" xlink:href="#m0adb437f23" y="144.477344"/>
    </g>
   </g>
   <g id="text_11">
    <text style="fill:#262626;font-family:Arial;font-size:10px;font-stretch:normal;font-style:normal;font-weight:normal;text-anchor:start;" transform="rotate(-0, 315.226562, 147.102344)" x="315.226562" y="147.102344">−0.25</text>
   </g>
   <g id="PathCollection_9">
    <defs>
     <path d="M 0 3 
C 0.795609 3 1.55874 2.683901 2.12132 2.12132 
C 2.683901 1.55874 3 0.795609 3 0 
C 3 -0.795609 2.683901 -1.55874 2.12132 -2.12132 
C 1.55874 -2.683901 0.795609 -3 0 -3 
C -0.795609 -3 -1.55874 -2.683901 -2.12132 -2.12132 
C -2.683901 -1.55874 -3 -0.795609 -3 0 
C -3 0.795609 -2.683901 1.55874 -2.12132 2.12132 
C -1.55874 2.683901 -0.795609 3 0 3 
z
" id="m8ee39d1fcc" style="stroke:#f7f6f6;"/>
    </defs>
    <g>
     <use style="fill:#f7f6f6;stroke:#f7f6f6;" x="297.226562" xlink:href="#m8ee39d1fcc" y="158.622656"/>
    </g>
   </g>
   <g id="text_12">
    <text style="fill:#262626;font-family:Arial;font-size:10px;font-stretch:normal;font-style:normal;font-weight:normal;text-anchor:start;" transform="rotate(-0, 315.226562, 161.247656)" x="315.226562" y="161.247656">0.00</text>
   </g>
   <g id="PathCollection_10">
    <defs>
     <path d="M 0 3 
C 0.795609 3 1.55874 2.683901 2.12132 2.12132 
C 2.683901 1.55874 3 0.795609 3 0 
C 3 -0.795609 2.683901 -1.55874 2.12132 -2.12132 
C 1.55874 -2.683901 0.795609 -3 0 -3 
C -0.795609 -3 -1.55874 -2.683901 -2.12132 -2.12132 
C -2.683901 -1.55874 -3 -0.795609 -3 0 
C -3 0.795609 -2.683901 1.55874 -2.12132 2.12132 
C -1.55874 2.683901 -0.795609 3 0 3 
z
" id="m14fc1f5e84" style="stroke:#fbccb4;"/>
    </defs>
    <g>
     <use style="fill:#fbccb4;stroke:#fbccb4;" x="297.226562" xlink:href="#m14fc1f5e84" y="172.767969"/>
    </g>
   </g>
   <g id="text_13">
    <text style="fill:#262626;font-family:Arial;font-size:10px;font-stretch:normal;font-style:normal;font-weight:normal;text-anchor:start;" transform="rotate(-0, 315.226562, 175.392969)" x="315.226562" y="175.392969">0.25</text>
   </g>
   <g id="PathCollection_11">
    <defs>
     <path d="M 0 3 
C 0.795609 3 1.55874 2.683901 2.12132 2.12132 
C 2.683901 1.55874 3 0.795609 3 0 
C 3 -0.795609 2.683901 -1.55874 2.12132 -2.12132 
C 1.55874 -2.683901 0.795609 -3 0 -3 
C -0.795609 -3 -1.55874 -2.683901 -2.12132 -2.12132 
C -2.683901 -1.55874 -3 -0.795609 -3 0 
C -3 0.795609 -2.683901 1.55874 -2.12132 2.12132 
C -1.55874 2.683901 -0.795609 3 0 3 
z
" id="m822f86900a" style="stroke:#e48066;"/>
    </defs>
    <g>
     <use style="fill:#e48066;stroke:#e48066;" x="297.226562" xlink:href="#m822f86900a" y="186.913281"/>
    </g>
   </g>
   <g id="text_14">
    <text style="fill:#262626;font-family:Arial;font-size:10px;font-stretch:normal;font-style:normal;font-weight:normal;text-anchor:start;" transform="rotate(-0, 315.226562, 189.538281)" x="315.226562" y="189.538281">0.50</text>
   </g>
   <g id="PathCollection_12">
    <defs>
     <path d="M 0 3 
C 0.795609 3 1.55874 2.683901 2.12132 2.12132 
C 2.683901 1.55874 3 0.795609 3 0 
C 3 -0.795609 2.683901 -1.55874 2.12132 -2.12132 
C 1.55874 -2.683901 0.795609 -3 0 -3 
C -0.795609 -3 -1.55874 -2.683901 -2.12132 -2.12132 
C -2.683901 -1.55874 -3 -0.795609 -3 0 
C -3 0.795609 -2.683901 1.55874 -2.12132 2.12132 
C -1.55874 2.683901 -0.795609 3 0 3 
z
" id="mbb9457d230" style="stroke:#ba2832;"/>
    </defs>
    <g>
     <use style="fill:#ba2832;stroke:#ba2832;" x="297.226562" xlink:href="#mbb9457d230" y="201.058594"/>
    </g>
   </g>
   <g id="text_15">
    <text style="fill:#262626;font-family:Arial;font-size:10px;font-stretch:normal;font-style:normal;font-weight:normal;text-anchor:start;" transform="rotate(-0, 315.226562, 203.683594)" x="315.226562" y="203.683594">0.75</text>
   </g>
   <g id="text_16">
    <text style="fill:#262626;font-family:Arial;font-size:10px;font-stretch:normal;font-style:normal;font-weight:normal;text-anchor:start;" transform="rotate(-0, 295.226562, 217.950781)" x="295.226562" y="217.950781">-log10(fdr)</text>
   </g>
   <g id="PathCollection_13">
    <defs>
     <path d="M 0 14.142136 
C 3.750538 14.142136 7.347969 12.652031 10 10 
C 12.652031 7.347969 14.142136 3.750538 14.142136 0 
C 14.142136 -3.750538 12.652031 -7.347969 10 -10 
C 7.347969 -12.652031 3.750538 -14.142136 0 -14.142136 
C -3.750538 -14.142136 -7.347969 -12.652031 -10 -10 
C -12.652031 -7.347969 -14.142136 -3.750538 -14.142136 0 
C -14.142136 3.750538 -12.652031 7.347969 -10 10 
C -7.347969 12.652031 -3.750538 14.142136 0 14.142136 
z
" id="m9f1190dd0d" style="stroke:#333333;"/>
    </defs>
    <g>
     <use style="fill:#333333;stroke:#333333;" x="297.226562" xlink:href="#m9f1190dd0d" y="229.588281"/>
    </g>
   </g>
   <g id="text_17">
    <text style="fill:#262626;font-family:Arial;font-size:10px;font-stretch:normal;font-style:normal;font-weight:normal;text-anchor:start;" transform="rotate(-0, 315.226562, 232.213281)" x="315.226562" y="232.213281">3.0</text>
   </g>
  </g>
 </g>
 <defs>
  <clipPath id="p740f41f3e0">
   <rect height="307.24" width="114.880873" x="169.615627" y="10.8"/>
  </clipPath>
 </defs>
</svg>
