<?xml version="1.0" encoding="utf-8" standalone="no"?>
<!DOCTYPE svg PUBLIC "-//W3C//DTD SVG 1.1//EN"
  "http://www.w3.org/Graphics/SVG/1.1/DTD/svg11.dtd">
<svg xmlns:xlink="http://www.w3.org/1999/xlink" width="360pt" height="216pt" viewBox="0 0 360 216" xmlns="http://www.w3.org/2000/svg" version="1.1">
 <metadata>
  <rdf:RDF xmlns:dc="http://purl.org/dc/elements/1.1/" xmlns:cc="http://creativecommons.org/ns#" xmlns:rdf="http://www.w3.org/1999/02/22-rdf-syntax-ns#">
   <cc:Work>
    <dc:type rdf:resource="http://purl.org/dc/dcmitype/StillImage"/>
    <dc:date>2023-08-08T11:23:29.318051</dc:date>
    <dc:format>image/svg+xml</dc:format>
    <dc:creator>
     <cc:Agent>
      <dc:title>Matplotlib v3.7.1, https://matplotlib.org/</dc:title>
     </cc:Agent>
    </dc:creator>
   </cc:Work>
  </rdf:RDF>
 </metadata>
 <defs>
  <style type="text/css">*{stroke-linejoin: round; stroke-linecap: butt}</style>
 </defs>
 <g id="figure_1">
  <g id="patch_1">
   <path d="M 0 216 
L 360 216 
L 360 0 
L 0 0 
z
" style="fill: #ffffff"/>
  </g>
  <g id="axes_1">
   <g id="patch_2">
    <path d="M 45 192.24 
L 324 192.24 
L 324 25.92 
L 45 25.92 
z
" style="fill: #ffffff"/>
   </g>
   <g id="patch_3">
    <path d="M 97.11748 67.5 
L 97.11748 67.5 
L 97.11748 67.5 
L 97.11748 67.5 
z
" clip-path="url(#p880aa79898)" style="fill: #dddddd; stroke: #666666; stroke-width: 0.75; stroke-linejoin: miter"/>
   </g>
   <g id="PolyCollection_1">
    <defs>
     <path id="m9474105fff" d="M 57.681818 -148.5 
L 57.681818 -148.500068 
L 60.099393 -148.500067 
L 62.516967 -148.500003 
L 64.934541 -148.5 
L 67.352116 -148.500019 
L 69.76969 -148.500044 
L 72.187264 -148.500114 
L 74.604839 -148.500004 
L 77.022413 -148.500074 
L 79.439987 -148.500166 
L 81.857562 -148.500503 
L 84.275136 -148.500733 
L 86.69271 -148.500872 
L 89.110285 -148.501686 
L 91.527859 -148.5023 
L 93.945433 -148.503643 
L 96.363008 -148.505609 
L 98.780582 -148.507744 
L 101.198156 -148.513739 
L 103.615731 -148.518798 
L 106.033305 -148.524704 
L 108.450879 -148.533888 
L 110.868454 -148.543681 
L 113.286028 -148.56676 
L 115.703603 -148.587205 
L 118.121177 -148.613373 
L 120.538751 -148.663333 
L 122.956326 -148.708945 
L 125.3739 -148.771925 
L 127.791474 -148.86606 
L 130.209049 -148.963962 
L 132.626623 -149.106367 
L 135.044197 -149.271816 
L 137.461772 -149.516474 
L 139.879346 -149.778358 
L 142.29692 -150.055811 
L 144.714495 -150.44131 
L 147.132069 -150.8079 
L 149.549643 -151.316427 
L 151.967218 -151.875682 
L 154.384792 -152.569848 
L 156.802366 -153.461389 
L 159.219941 -154.507464 
L 161.637515 -155.782705 
L 164.055089 -157.29073 
L 166.472664 -159.008252 
L 168.890238 -160.954157 
L 171.307812 -162.887832 
L 173.725387 -165.035761 
L 176.142961 -167.284637 
L 178.560536 -169.754657 
L 180.97811 -172.316897 
L 183.395684 -174.946406 
L 185.813259 -177.362163 
L 188.230833 -179.299062 
L 190.648407 -180.672377 
L 193.065982 -181.531606 
L 195.483556 -181.764 
L 197.90113 -181.571923 
L 200.318705 -180.836757 
L 202.736279 -179.770404 
L 205.153853 -178.299364 
L 207.571428 -176.850536 
L 209.989002 -175.248525 
L 212.406576 -173.325506 
L 214.824151 -171.542996 
L 217.241725 -169.704762 
L 219.659299 -167.739155 
L 222.076874 -165.856565 
L 224.494448 -163.98992 
L 226.912022 -162.183753 
L 229.329597 -160.460877 
L 231.747171 -158.917024 
L 234.164746 -157.399493 
L 236.58232 -156.079447 
L 238.999894 -154.840668 
L 241.417469 -153.746525 
L 243.835043 -152.774237 
L 246.252617 -151.95604 
L 248.670192 -151.225207 
L 251.087766 -150.639178 
L 253.50534 -150.146772 
L 255.922915 -149.76188 
L 258.340489 -149.451357 
L 260.758063 -149.204195 
L 263.175638 -148.996165 
L 265.593212 -148.862575 
L 268.010786 -148.748515 
L 270.428361 -148.669029 
L 272.845935 -148.610594 
L 275.263509 -148.570293 
L 277.681084 -148.543149 
L 280.098658 -148.528233 
L 282.516232 -148.515856 
L 284.933807 -148.508561 
L 287.351381 -148.503848 
L 289.768955 -148.501725 
L 292.18653 -148.500682 
L 294.604104 -148.500381 
L 297.021679 -148.500167 
L 297.021679 -148.5 
L 297.021679 -148.5 
L 294.604104 -148.5 
L 292.18653 -148.5 
L 289.768955 -148.5 
L 287.351381 -148.5 
L 284.933807 -148.5 
L 282.516232 -148.5 
L 280.098658 -148.5 
L 277.681084 -148.5 
L 275.263509 -148.5 
L 272.845935 -148.5 
L 270.428361 -148.5 
L 268.010786 -148.5 
L 265.593212 -148.5 
L 263.175638 -148.5 
L 260.758063 -148.5 
L 258.340489 -148.5 
L 255.922915 -148.5 
L 253.50534 -148.5 
L 251.087766 -148.5 
L 248.670192 -148.5 
L 246.252617 -148.5 
L 243.835043 -148.5 
L 241.417469 -148.5 
L 238.999894 -148.5 
L 236.58232 -148.5 
L 234.164746 -148.5 
L 231.747171 -148.5 
L 229.329597 -148.5 
L 226.912022 -148.5 
L 224.494448 -148.5 
L 222.076874 -148.5 
L 219.659299 -148.5 
L 217.241725 -148.5 
L 214.824151 -148.5 
L 212.406576 -148.5 
L 209.989002 -148.5 
L 207.571428 -148.5 
L 205.153853 -148.5 
L 202.736279 -148.5 
L 200.318705 -148.5 
L 197.90113 -148.5 
L 195.483556 -148.5 
L 193.065982 -148.5 
L 190.648407 -148.5 
L 188.230833 -148.5 
L 185.813259 -148.5 
L 183.395684 -148.5 
L 180.97811 -148.5 
L 178.560536 -148.5 
L 176.142961 -148.5 
L 173.725387 -148.5 
L 171.307812 -148.5 
L 168.890238 -148.5 
L 166.472664 -148.5 
L 164.055089 -148.5 
L 161.637515 -148.5 
L 159.219941 -148.5 
L 156.802366 -148.5 
L 154.384792 -148.5 
L 151.967218 -148.5 
L 149.549643 -148.5 
L 147.132069 -148.5 
L 144.714495 -148.5 
L 142.29692 -148.5 
L 139.879346 -148.5 
L 137.461772 -148.5 
L 135.044197 -148.5 
L 132.626623 -148.5 
L 130.209049 -148.5 
L 127.791474 -148.5 
L 125.3739 -148.5 
L 122.956326 -148.5 
L 120.538751 -148.5 
L 118.121177 -148.5 
L 115.703603 -148.5 
L 113.286028 -148.5 
L 110.868454 -148.5 
L 108.450879 -148.5 
L 106.033305 -148.5 
L 103.615731 -148.5 
L 101.198156 -148.5 
L 98.780582 -148.5 
L 96.363008 -148.5 
L 93.945433 -148.5 
L 91.527859 -148.5 
L 89.110285 -148.5 
L 86.69271 -148.5 
L 84.275136 -148.5 
L 81.857562 -148.5 
L 79.439987 -148.5 
L 77.022413 -148.5 
L 74.604839 -148.5 
L 72.187264 -148.5 
L 69.76969 -148.5 
L 67.352116 -148.5 
L 64.934541 -148.5 
L 62.516967 -148.5 
L 60.099393 -148.5 
L 57.681818 -148.5 
z
" style="stroke: #666666; stroke-width: 1.5"/>
    </defs>
    <g clip-path="url(#p880aa79898)">
     <use xlink:href="#m9474105fff" x="0" y="216" style="fill: #dddddd; stroke: #666666; stroke-width: 1.5"/>
    </g>
   </g>
   <g id="patch_4">
    <path d="M 97.11748 67.5 
L 97.11748 67.5 
L 97.11748 67.5 
L 97.11748 67.5 
z
" clip-path="url(#p880aa79898)" style="fill: #aaaaaa; stroke: #666666; stroke-width: 0.75; stroke-linejoin: miter"/>
   </g>
   <g id="PolyCollection_2">
    <defs>
     <path id="m060b49eecd" d="M 73.270782 -148.499737 
L 73.270782 -148.5 
L 75.459135 -148.5 
L 77.647488 -148.5 
L 79.835842 -148.5 
L 82.024195 -148.5 
L 84.212548 -148.5 
L 86.400901 -148.5 
L 88.589255 -148.5 
L 90.777608 -148.5 
L 92.965961 -148.5 
L 95.154315 -148.5 
L 97.342668 -148.5 
L 99.531021 -148.5 
L 101.719375 -148.5 
L 103.907728 -148.5 
L 106.096081 -148.5 
L 108.284435 -148.5 
L 110.472788 -148.5 
L 112.661141 -148.5 
L 114.849495 -148.5 
L 117.037848 -148.5 
L 119.226201 -148.5 
L 121.414555 -148.5 
L 123.602908 -148.5 
L 125.791261 -148.5 
L 127.979615 -148.5 
L 130.167968 -148.5 
L 132.356321 -148.5 
L 134.544674 -148.5 
L 136.733028 -148.5 
L 138.921381 -148.5 
L 141.109734 -148.5 
L 143.298088 -148.5 
L 145.486441 -148.5 
L 147.674794 -148.5 
L 149.863148 -148.5 
L 152.051501 -148.5 
L 154.239854 -148.5 
L 156.428208 -148.5 
L 158.616561 -148.5 
L 160.804914 -148.5 
L 162.993268 -148.5 
L 165.181621 -148.5 
L 167.369974 -148.5 
L 169.558328 -148.5 
L 171.746681 -148.5 
L 173.935034 -148.5 
L 176.123388 -148.5 
L 178.311741 -148.5 
L 180.500094 -148.5 
L 182.688447 -148.5 
L 184.876801 -148.5 
L 187.065154 -148.5 
L 189.253507 -148.5 
L 191.441861 -148.5 
L 193.630214 -148.5 
L 195.818567 -148.5 
L 198.006921 -148.5 
L 200.195274 -148.5 
L 202.383627 -148.5 
L 204.571981 -148.5 
L 206.760334 -148.5 
L 208.948687 -148.5 
L 211.137041 -148.5 
L 213.325394 -148.5 
L 215.513747 -148.5 
L 217.702101 -148.5 
L 219.890454 -148.5 
L 222.078807 -148.5 
L 224.26716 -148.5 
L 226.455514 -148.5 
L 228.643867 -148.5 
L 230.83222 -148.5 
L 233.020574 -148.5 
L 235.208927 -148.5 
L 237.39728 -148.5 
L 239.585634 -148.5 
L 241.773987 -148.5 
L 243.96234 -148.5 
L 246.150694 -148.5 
L 248.339047 -148.5 
L 250.5274 -148.5 
L 252.715754 -148.5 
L 254.904107 -148.5 
L 257.09246 -148.5 
L 259.280814 -148.5 
L 261.469167 -148.5 
L 263.65752 -148.5 
L 265.845874 -148.5 
L 268.034227 -148.5 
L 270.22258 -148.5 
L 272.410933 -148.5 
L 274.599287 -148.5 
L 276.78764 -148.5 
L 278.975993 -148.5 
L 281.164347 -148.5 
L 283.3527 -148.5 
L 285.541053 -148.5 
L 287.729407 -148.5 
L 289.91776 -148.5 
L 289.91776 -148.499856 
L 289.91776 -148.499856 
L 287.729407 -148.499892 
L 285.541053 -148.499462 
L 283.3527 -148.499319 
L 281.164347 -148.498925 
L 278.975993 -148.497134 
L 276.78764 -148.493184 
L 274.599287 -148.48915 
L 272.410933 -148.481175 
L 270.22258 -148.467031 
L 268.034227 -148.441125 
L 265.845874 -148.399369 
L 263.65752 -148.339919 
L 261.469167 -148.239685 
L 259.280814 -148.110967 
L 257.09246 -147.939713 
L 254.904107 -147.697726 
L 252.715754 -147.351887 
L 250.5274 -146.943933 
L 248.339047 -146.424962 
L 246.150694 -145.763859 
L 243.96234 -144.966795 
L 241.773987 -144.034952 
L 239.585634 -142.964645 
L 237.39728 -141.737521 
L 235.208927 -140.416697 
L 233.020574 -138.960317 
L 230.83222 -137.394497 
L 228.643867 -135.690948 
L 226.455514 -134.008378 
L 224.26716 -132.229769 
L 222.078807 -130.44498 
L 219.890454 -128.563456 
L 217.702101 -126.791462 
L 215.513747 -125.002877 
L 213.325394 -123.238548 
L 211.137041 -121.585879 
L 208.948687 -120.008426 
L 206.760334 -118.610323 
L 204.571981 -117.460075 
L 202.383627 -116.47114 
L 200.195274 -116.061863 
L 198.006921 -115.943339 
L 195.818567 -116.290632 
L 193.630214 -117.043494 
L 191.441861 -118.121127 
L 189.253507 -119.68456 
L 187.065154 -121.373633 
L 184.876801 -123.230289 
L 182.688447 -125.313216 
L 180.500094 -127.464258 
L 178.311741 -129.667609 
L 176.123388 -131.700152 
L 173.935034 -133.542184 
L 171.746681 -135.341534 
L 169.558328 -136.825058 
L 167.369974 -138.072722 
L 165.181621 -139.071397 
L 162.993268 -139.941961 
L 160.804914 -140.598118 
L 158.616561 -141.17507 
L 156.428208 -141.773458 
L 154.239854 -142.417311 
L 152.051501 -142.959127 
L 149.863148 -143.573325 
L 147.674794 -144.087134 
L 145.486441 -144.59285 
L 143.298088 -145.094987 
L 141.109734 -145.481525 
L 138.921381 -145.937814 
L 136.733028 -146.149605 
L 134.544674 -146.626843 
L 132.356321 -147.013391 
L 130.167968 -147.388471 
L 127.979615 -147.649579 
L 125.791261 -147.864411 
L 123.602908 -148.019597 
L 121.414555 -148.130782 
L 119.226201 -148.186488 
L 117.037848 -148.274088 
L 114.849495 -148.327452 
L 112.661141 -148.369785 
L 110.472788 -148.406185 
L 108.284435 -148.427796 
L 106.096081 -148.449953 
L 103.907728 -148.465433 
L 101.719375 -148.474328 
L 99.531021 -148.481215 
L 97.342668 -148.485292 
L 95.154315 -148.488936 
L 92.965961 -148.49411 
L 90.777608 -148.496435 
L 88.589255 -148.49729 
L 86.400901 -148.498152 
L 84.212548 -148.498756 
L 82.024195 -148.498733 
L 79.835842 -148.499622 
L 77.647488 -148.499655 
L 75.459135 -148.49984 
L 73.270782 -148.499737 
z
" style="stroke: #666666; stroke-width: 1.5"/>
    </defs>
    <g clip-path="url(#p880aa79898)">
     <use xlink:href="#m060b49eecd" x="0" y="216" style="fill: #aaaaaa; stroke: #666666; stroke-width: 1.5"/>
    </g>
   </g>
   <g id="PolyCollection_3">
    <defs>
     <path id="m78de3f3f00" d="M 127.907408 -65.34 
L 127.907408 -65.344525 
L 129.760042 -65.347571 
L 131.612676 -65.351799 
L 133.46531 -65.357504 
L 135.317944 -65.367084 
L 137.170578 -65.383706 
L 139.023212 -65.406525 
L 140.875846 -65.431958 
L 142.72848 -65.459411 
L 144.581114 -65.490301 
L 146.433749 -65.525325 
L 148.286383 -65.566508 
L 150.139017 -65.616052 
L 151.991651 -65.676269 
L 153.844285 -65.757978 
L 155.696919 -65.878841 
L 157.549553 -66.043963 
L 159.402187 -66.238134 
L 161.254821 -66.449185 
L 163.107455 -66.692699 
L 164.960089 -66.993047 
L 166.812723 -67.342944 
L 168.665358 -67.711711 
L 170.517992 -68.087004 
L 172.370626 -68.475795 
L 174.22326 -68.873725 
L 176.075894 -69.251394 
L 177.928528 -69.563473 
L 179.781162 -69.774923 
L 181.633796 -69.887272 
L 183.48643 -69.936444 
L 185.339064 -69.981193 
L 187.191698 -70.100886 
L 189.044332 -70.368116 
L 190.896967 -70.816049 
L 192.749601 -71.443236 
L 194.602235 -72.227263 
L 196.454869 -73.144565 
L 198.307503 -74.192233 
L 200.160137 -75.348486 
L 202.012771 -76.535472 
L 203.865405 -77.675636 
L 205.718039 -78.735523 
L 207.570673 -79.699599 
L 209.423307 -80.562432 
L 211.275941 -81.363081 
L 213.128575 -82.203424 
L 214.98121 -83.188564 
L 216.833844 -84.332979 
L 218.686478 -85.547022 
L 220.539112 -86.683511 
L 222.391746 -87.579185 
L 224.24438 -88.109837 
L 226.097014 -88.247104 
L 227.949648 -88.054653 
L 229.802282 -87.635864 
L 231.654916 -87.101407 
L 233.50755 -86.554329 
L 235.360184 -86.072887 
L 237.212819 -85.709183 
L 239.065453 -85.500037 
L 240.918087 -85.468958 
L 242.770721 -85.601554 
L 244.623355 -85.84683 
L 246.475989 -86.178875 
L 248.328623 -86.587033 
L 250.181257 -86.998205 
L 252.033891 -87.321618 
L 253.886525 -87.543732 
L 255.739159 -87.681911 
L 257.591793 -87.725873 
L 259.444428 -87.683373 
L 261.297062 -87.568567 
L 263.149696 -87.351032 
L 265.00233 -87.026178 
L 266.854964 -86.662131 
L 268.707598 -86.293807 
L 270.560232 -85.884065 
L 272.412866 -85.420487 
L 274.2655 -84.926001 
L 276.118134 -84.365063 
L 277.970768 -83.635454 
L 279.823402 -82.675588 
L 281.676037 -81.506741 
L 283.528671 -80.148637 
L 285.381305 -78.589177 
L 287.233939 -76.856709 
L 289.086573 -75.037071 
L 290.939207 -73.230813 
L 292.791841 -71.533832 
L 294.644475 -70.02073 
L 296.497109 -68.730614 
L 298.349743 -67.678449 
L 300.202377 -66.870922 
L 302.055011 -66.296824 
L 303.907645 -65.912918 
L 305.76028 -65.663284 
L 307.612914 -65.506629 
L 309.465548 -65.416454 
L 311.318182 -65.370756 
L 311.318182 -65.34 
L 311.318182 -65.34 
L 309.465548 -65.34 
L 307.612914 -65.34 
L 305.76028 -65.34 
L 303.907645 -65.34 
L 302.055011 -65.34 
L 300.202377 -65.34 
L 298.349743 -65.34 
L 296.497109 -65.34 
L 294.644475 -65.34 
L 292.791841 -65.34 
L 290.939207 -65.34 
L 289.086573 -65.34 
L 287.233939 -65.34 
L 285.381305 -65.34 
L 283.528671 -65.34 
L 281.676037 -65.34 
L 279.823402 -65.34 
L 277.970768 -65.34 
L 276.118134 -65.34 
L 274.2655 -65.34 
L 272.412866 -65.34 
L 270.560232 -65.34 
L 268.707598 -65.34 
L 266.854964 -65.34 
L 265.00233 -65.34 
L 263.149696 -65.34 
L 261.297062 -65.34 
L 259.444428 -65.34 
L 257.591793 -65.34 
L 255.739159 -65.34 
L 253.886525 -65.34 
L 252.033891 -65.34 
L 250.181257 -65.34 
L 248.328623 -65.34 
L 246.475989 -65.34 
L 244.623355 -65.34 
L 242.770721 -65.34 
L 240.918087 -65.34 
L 239.065453 -65.34 
L 237.212819 -65.34 
L 235.360184 -65.34 
L 233.50755 -65.34 
L 231.654916 -65.34 
L 229.802282 -65.34 
L 227.949648 -65.34 
L 226.097014 -65.34 
L 224.24438 -65.34 
L 222.391746 -65.34 
L 220.539112 -65.34 
L 218.686478 -65.34 
L 216.833844 -65.34 
L 214.98121 -65.34 
L 213.128575 -65.34 
L 211.275941 -65.34 
L 209.423307 -65.34 
L 207.570673 -65.34 
L 205.718039 -65.34 
L 203.865405 -65.34 
L 202.012771 -65.34 
L 200.160137 -65.34 
L 198.307503 -65.34 
L 196.454869 -65.34 
L 194.602235 -65.34 
L 192.749601 -65.34 
L 190.896967 -65.34 
L 189.044332 -65.34 
L 187.191698 -65.34 
L 185.339064 -65.34 
L 183.48643 -65.34 
L 181.633796 -65.34 
L 179.781162 -65.34 
L 177.928528 -65.34 
L 176.075894 -65.34 
L 174.22326 -65.34 
L 172.370626 -65.34 
L 170.517992 -65.34 
L 168.665358 -65.34 
L 166.812723 -65.34 
L 164.960089 -65.34 
L 163.107455 -65.34 
L 161.254821 -65.34 
L 159.402187 -65.34 
L 157.549553 -65.34 
L 155.696919 -65.34 
L 153.844285 -65.34 
L 151.991651 -65.34 
L 150.139017 -65.34 
L 148.286383 -65.34 
L 146.433749 -65.34 
L 144.581114 -65.34 
L 142.72848 -65.34 
L 140.875846 -65.34 
L 139.023212 -65.34 
L 137.170578 -65.34 
L 135.317944 -65.34 
L 133.46531 -65.34 
L 131.612676 -65.34 
L 129.760042 -65.34 
L 127.907408 -65.34 
z
" style="stroke: #666666; stroke-width: 1.5"/>
    </defs>
    <g clip-path="url(#p880aa79898)">
     <use xlink:href="#m78de3f3f00" x="0" y="216" style="fill: #dddddd; stroke: #666666; stroke-width: 1.5"/>
    </g>
   </g>
   <g id="PolyCollection_4">
    <defs>
     <path id="mc552d9e917" d="M 115.311899 -65.327449 
L 115.311899 -65.34 
L 117.101114 -65.34 
L 118.89033 -65.34 
L 120.679545 -65.34 
L 122.46876 -65.34 
L 124.257976 -65.34 
L 126.047191 -65.34 
L 127.836407 -65.34 
L 129.625622 -65.34 
L 131.414837 -65.34 
L 133.204053 -65.34 
L 134.993268 -65.34 
L 136.782483 -65.34 
L 138.571699 -65.34 
L 140.360914 -65.34 
L 142.15013 -65.34 
L 143.939345 -65.34 
L 145.72856 -65.34 
L 147.517776 -65.34 
L 149.306991 -65.34 
L 151.096207 -65.34 
L 152.885422 -65.34 
L 154.674637 -65.34 
L 156.463853 -65.34 
L 158.253068 -65.34 
L 160.042283 -65.34 
L 161.831499 -65.34 
L 163.620714 -65.34 
L 165.40993 -65.34 
L 167.199145 -65.34 
L 168.98836 -65.34 
L 170.777576 -65.34 
L 172.566791 -65.34 
L 174.356007 -65.34 
L 176.145222 -65.34 
L 177.934437 -65.34 
L 179.723653 -65.34 
L 181.512868 -65.34 
L 183.302083 -65.34 
L 185.091299 -65.34 
L 186.880514 -65.34 
L 188.66973 -65.34 
L 190.458945 -65.34 
L 192.24816 -65.34 
L 194.037376 -65.34 
L 195.826591 -65.34 
L 197.615807 -65.34 
L 199.405022 -65.34 
L 201.194237 -65.34 
L 202.983453 -65.34 
L 204.772668 -65.34 
L 206.561883 -65.34 
L 208.351099 -65.34 
L 210.140314 -65.34 
L 211.92953 -65.34 
L 213.718745 -65.34 
L 215.50796 -65.34 
L 217.297176 -65.34 
L 219.086391 -65.34 
L 220.875607 -65.34 
L 222.664822 -65.34 
L 224.454037 -65.34 
L 226.243253 -65.34 
L 228.032468 -65.34 
L 229.821684 -65.34 
L 231.610899 -65.34 
L 233.400114 -65.34 
L 235.18933 -65.34 
L 236.978545 -65.34 
L 238.76776 -65.34 
L 240.556976 -65.34 
L 242.346191 -65.34 
L 244.135407 -65.34 
L 245.924622 -65.34 
L 247.713837 -65.34 
L 249.503053 -65.34 
L 251.292268 -65.34 
L 253.081484 -65.34 
L 254.870699 -65.34 
L 256.659914 -65.34 
L 258.44913 -65.34 
L 260.238345 -65.34 
L 262.02756 -65.34 
L 263.816776 -65.34 
L 265.605991 -65.34 
L 267.395207 -65.34 
L 269.184422 -65.34 
L 270.973637 -65.34 
L 272.762853 -65.34 
L 274.552068 -65.34 
L 276.341284 -65.34 
L 278.130499 -65.34 
L 279.919714 -65.34 
L 281.70893 -65.34 
L 283.498145 -65.34 
L 285.28736 -65.34 
L 287.076576 -65.34 
L 288.865791 -65.34 
L 290.655007 -65.34 
L 292.444222 -65.34 
L 292.444222 -65.315294 
L 292.444222 -65.315294 
L 290.655007 -65.308425 
L 288.865791 -65.300677 
L 287.076576 -65.276574 
L 285.28736 -65.220399 
L 283.498145 -65.120406 
L 281.70893 -64.946658 
L 279.919714 -64.64672 
L 278.130499 -64.182322 
L 276.341284 -63.536246 
L 274.552068 -62.681347 
L 272.762853 -61.564903 
L 270.973637 -60.128176 
L 269.184422 -58.356663 
L 267.395207 -56.303563 
L 265.605991 -54.04522 
L 263.816776 -51.588854 
L 262.02756 -48.916868 
L 260.238345 -46.15917 
L 258.44913 -43.562917 
L 256.659914 -41.259477 
L 254.870699 -39.177113 
L 253.081484 -37.297343 
L 251.292268 -35.786369 
L 249.503053 -34.664088 
L 247.713837 -33.707261 
L 245.924622 -32.853856 
L 244.135407 -32.30621 
L 242.346191 -32.117529 
L 240.556976 -32.076 
L 238.76776 -32.112605 
L 236.978545 -32.373407 
L 235.18933 -32.820426 
L 233.400114 -33.290231 
L 231.610899 -33.756146 
L 229.821684 -34.209896 
L 228.032468 -34.699992 
L 226.243253 -35.355989 
L 224.454037 -36.068937 
L 222.664822 -36.640471 
L 220.875607 -37.221672 
L 219.086391 -38.045227 
L 217.297176 -39.052329 
L 215.50796 -40.095178 
L 213.718745 -41.189939 
L 211.92953 -42.409014 
L 210.140314 -43.735287 
L 208.351099 -45.187899 
L 206.561883 -46.841174 
L 204.772668 -48.619104 
L 202.983453 -50.335276 
L 201.194237 -51.970378 
L 199.405022 -53.618602 
L 197.615807 -55.215416 
L 195.826591 -56.632416 
L 194.037376 -57.891347 
L 192.24816 -59.070154 
L 190.458945 -60.139882 
L 188.66973 -61.035758 
L 186.880514 -61.769688 
L 185.091299 -62.390301 
L 183.302083 -62.92382 
L 181.512868 -63.376498 
L 179.723653 -63.736608 
L 177.934437 -63.98525 
L 176.145222 -64.124088 
L 174.356007 -64.187945 
L 172.566791 -64.217094 
L 170.777576 -64.224721 
L 168.98836 -64.203849 
L 167.199145 -64.146996 
L 165.40993 -64.047971 
L 163.620714 -63.903082 
L 161.831499 -63.738284 
L 160.042283 -63.612652 
L 158.253068 -63.560998 
L 156.463853 -63.575008 
L 154.674637 -63.635297 
L 152.885422 -63.725015 
L 151.096207 -63.840771 
L 149.306991 -63.973251 
L 147.517776 -64.0936 
L 145.72856 -64.190603 
L 143.939345 -64.27532 
L 142.15013 -64.355437 
L 140.360914 -64.423605 
L 138.571699 -64.471864 
L 136.782483 -64.532845 
L 134.993268 -64.645124 
L 133.204053 -64.792271 
L 131.414837 -64.937222 
L 129.625622 -65.061424 
L 127.836407 -65.159347 
L 126.047191 -65.23028 
L 124.257976 -65.275218 
L 122.46876 -65.298532 
L 120.679545 -65.308132 
L 118.89033 -65.313252 
L 117.101114 -65.31978 
L 115.311899 -65.327449 
z
" style="stroke: #666666; stroke-width: 1.5"/>
    </defs>
    <g clip-path="url(#p880aa79898)">
     <use xlink:href="#mc552d9e917" x="0" y="216" style="fill: #aaaaaa; stroke: #666666; stroke-width: 1.5"/>
    </g>
   </g>
   <g id="matplotlib.axis_1">
    <g id="xtick_1">
     <g id="line2d_1">
      <defs>
       <path id="m03b966f47f" d="M 0 0 
L 0 3.5 
" style="stroke: #000000; stroke-width: 0.8"/>
      </defs>
      <g>
       <use xlink:href="#m03b966f47f" x="60.369884" y="192.24" style="stroke: #000000; stroke-width: 0.8"/>
      </g>
     </g>
     <g id="text_1">
      <text style="font: 10px 'DejaVu Sans', 'Bitstream Vera Sans', 'Computer Modern Sans Serif', 'Lucida Grande', 'Verdana', 'Geneva', 'Lucid', 'Arial', 'Helvetica', 'Avant Garde', sans-serif; text-anchor: middle" x="60.369884" y="206.838437" transform="rotate(-0 60.369884 206.838437)">−2</text>
     </g>
    </g>
    <g id="xtick_2">
     <g id="line2d_2">
      <g>
       <use xlink:href="#m03b966f47f" x="97.11748" y="192.24" style="stroke: #000000; stroke-width: 0.8"/>
      </g>
     </g>
     <g id="text_2">
      <text style="font: 10px 'DejaVu Sans', 'Bitstream Vera Sans', 'Computer Modern Sans Serif', 'Lucida Grande', 'Verdana', 'Geneva', 'Lucid', 'Arial', 'Helvetica', 'Avant Garde', sans-serif; text-anchor: middle" x="97.11748" y="206.838437" transform="rotate(-0 97.11748 206.838437)">0</text>
     </g>
    </g>
    <g id="xtick_3">
     <g id="line2d_3">
      <g>
       <use xlink:href="#m03b966f47f" x="133.865076" y="192.24" style="stroke: #000000; stroke-width: 0.8"/>
      </g>
     </g>
     <g id="text_3">
      <text style="font: 10px 'DejaVu Sans', 'Bitstream Vera Sans', 'Computer Modern Sans Serif', 'Lucida Grande', 'Verdana', 'Geneva', 'Lucid', 'Arial', 'Helvetica', 'Avant Garde', sans-serif; text-anchor: middle" x="133.865076" y="206.838437" transform="rotate(-0 133.865076 206.838437)">2</text>
     </g>
    </g>
    <g id="xtick_4">
     <g id="line2d_4">
      <g>
       <use xlink:href="#m03b966f47f" x="170.612672" y="192.24" style="stroke: #000000; stroke-width: 0.8"/>
      </g>
     </g>
     <g id="text_4">
      <text style="font: 10px 'DejaVu Sans', 'Bitstream Vera Sans', 'Computer Modern Sans Serif', 'Lucida Grande', 'Verdana', 'Geneva', 'Lucid', 'Arial', 'Helvetica', 'Avant Garde', sans-serif; text-anchor: middle" x="170.612672" y="206.838437" transform="rotate(-0 170.612672 206.838437)">4</text>
     </g>
    </g>
    <g id="xtick_5">
     <g id="line2d_5">
      <g>
       <use xlink:href="#m03b966f47f" x="207.360268" y="192.24" style="stroke: #000000; stroke-width: 0.8"/>
      </g>
     </g>
     <g id="text_5">
      <text style="font: 10px 'DejaVu Sans', 'Bitstream Vera Sans', 'Computer Modern Sans Serif', 'Lucida Grande', 'Verdana', 'Geneva', 'Lucid', 'Arial', 'Helvetica', 'Avant Garde', sans-serif; text-anchor: middle" x="207.360268" y="206.838437" transform="rotate(-0 207.360268 206.838437)">6</text>
     </g>
    </g>
    <g id="xtick_6">
     <g id="line2d_6">
      <g>
       <use xlink:href="#m03b966f47f" x="244.107864" y="192.24" style="stroke: #000000; stroke-width: 0.8"/>
      </g>
     </g>
     <g id="text_6">
      <text style="font: 10px 'DejaVu Sans', 'Bitstream Vera Sans', 'Computer Modern Sans Serif', 'Lucida Grande', 'Verdana', 'Geneva', 'Lucid', 'Arial', 'Helvetica', 'Avant Garde', sans-serif; text-anchor: middle" x="244.107864" y="206.838437" transform="rotate(-0 244.107864 206.838437)">8</text>
     </g>
    </g>
    <g id="xtick_7">
     <g id="line2d_7">
      <g>
       <use xlink:href="#m03b966f47f" x="280.85546" y="192.24" style="stroke: #000000; stroke-width: 0.8"/>
      </g>
     </g>
     <g id="text_7">
      <text style="font: 10px 'DejaVu Sans', 'Bitstream Vera Sans', 'Computer Modern Sans Serif', 'Lucida Grande', 'Verdana', 'Geneva', 'Lucid', 'Arial', 'Helvetica', 'Avant Garde', sans-serif; text-anchor: middle" x="280.85546" y="206.838437" transform="rotate(-0 280.85546 206.838437)">10</text>
     </g>
    </g>
    <g id="xtick_8">
     <g id="line2d_8">
      <g>
       <use xlink:href="#m03b966f47f" x="317.603056" y="192.24" style="stroke: #000000; stroke-width: 0.8"/>
      </g>
     </g>
     <g id="text_8">
      <text style="font: 10px 'DejaVu Sans', 'Bitstream Vera Sans', 'Computer Modern Sans Serif', 'Lucida Grande', 'Verdana', 'Geneva', 'Lucid', 'Arial', 'Helvetica', 'Avant Garde', sans-serif; text-anchor: middle" x="317.603056" y="206.838437" transform="rotate(-0 317.603056 206.838437)">12</text>
     </g>
    </g>
    <g id="text_9">
     <text style="font: 10px 'DejaVu Sans', 'Bitstream Vera Sans', 'Computer Modern Sans Serif', 'Lucida Grande', 'Verdana', 'Geneva', 'Lucid', 'Arial', 'Helvetica', 'Avant Garde', sans-serif; text-anchor: middle" x="184.5" y="220.516562" transform="rotate(-0 184.5 220.516562)">log_clq</text>
    </g>
   </g>
   <g id="matplotlib.axis_2">
    <g id="ytick_1">
     <g id="line2d_9">
      <defs>
       <path id="mfdbd0ab838" d="M 0 0 
L -3.5 0 
" style="stroke: #000000; stroke-width: 0.8"/>
      </defs>
      <g>
       <use xlink:href="#mfdbd0ab838" x="45" y="67.5" style="stroke: #000000; stroke-width: 0.8"/>
      </g>
     </g>
     <g id="text_10">
      <text style="font: 10px 'DejaVu Sans', 'Bitstream Vera Sans', 'Computer Modern Sans Serif', 'Lucida Grande', 'Verdana', 'Geneva', 'Lucid', 'Arial', 'Helvetica', 'Avant Garde', sans-serif; text-anchor: end" x="38" y="71.299219" transform="rotate(-0 38 71.299219)">pair</text>
     </g>
    </g>
    <g id="ytick_2">
     <g id="line2d_10">
      <g>
       <use xlink:href="#mfdbd0ab838" x="45" y="150.66" style="stroke: #000000; stroke-width: 0.8"/>
      </g>
     </g>
     <g id="text_11">
      <text style="font: 10px 'DejaVu Sans', 'Bitstream Vera Sans', 'Computer Modern Sans Serif', 'Lucida Grande', 'Verdana', 'Geneva', 'Lucid', 'Arial', 'Helvetica', 'Avant Garde', sans-serif; text-anchor: end" x="38" y="154.459219" transform="rotate(-0 38 154.459219)">self</text>
     </g>
    </g>
   </g>
   <g id="line2d_11">
    <path d="M 183.838279 41.318058 
L 183.838279 67.5 
" clip-path="url(#p880aa79898)" style="fill: none; stroke-dasharray: 3.375,3.375; stroke-dashoffset: 0; stroke: #666666; stroke-width: 1.5"/>
   </g>
   <g id="line2d_12">
    <path d="M 197.949944 34.758796 
L 197.949944 67.5 
" clip-path="url(#p880aa79898)" style="fill: none; stroke-dasharray: 6.75,6.75; stroke-dashoffset: 0; stroke: #666666; stroke-width: 1.5"/>
   </g>
   <g id="line2d_13">
    <path d="M 213.113733 42.922749 
L 213.113733 67.5 
" clip-path="url(#p880aa79898)" style="fill: none; stroke-dasharray: 3.375,3.375; stroke-dashoffset: 0; stroke: #666666; stroke-width: 1.5"/>
   </g>
   <g id="line2d_14">
    <path d="M 182.805174 67.5 
L 182.805174 90.454916 
" clip-path="url(#p880aa79898)" style="fill: none; stroke-dasharray: 3.375,3.375; stroke-dashoffset: 0; stroke: #666666; stroke-width: 1.5"/>
   </g>
   <g id="line2d_15">
    <path d="M 198.085353 67.5 
L 198.085353 99.731095 
" clip-path="url(#p880aa79898)" style="fill: none; stroke-dasharray: 6.75,6.75; stroke-dashoffset: 0; stroke: #666666; stroke-width: 1.5"/>
   </g>
   <g id="line2d_16">
    <path d="M 212.857856 67.5 
L 212.857856 92.508837 
" clip-path="url(#p880aa79898)" style="fill: none; stroke-dasharray: 3.375,3.375; stroke-dashoffset: 0; stroke: #666666; stroke-width: 1.5"/>
   </g>
   <g id="line2d_17">
    <path d="M 219.991234 129.529924 
L 219.991234 150.66 
" clip-path="url(#p880aa79898)" style="fill: none; stroke-dasharray: 3.375,3.375; stroke-dashoffset: 0; stroke: #666666; stroke-width: 1.5"/>
   </g>
   <g id="line2d_18">
    <path d="M 242.537291 130.601062 
L 242.537291 150.66 
" clip-path="url(#p880aa79898)" style="fill: none; stroke-dasharray: 6.75,6.75; stroke-dashoffset: 0; stroke: #666666; stroke-width: 1.5"/>
   </g>
   <g id="line2d_19">
    <path d="M 264.846509 129.190683 
L 264.846509 150.66 
" clip-path="url(#p880aa79898)" style="fill: none; stroke-dasharray: 3.375,3.375; stroke-dashoffset: 0; stroke: #666666; stroke-width: 1.5"/>
   </g>
   <g id="line2d_20">
    <path d="M 216.080015 150.66 
L 216.080015 175.652374 
" clip-path="url(#p880aa79898)" style="fill: none; stroke-dasharray: 3.375,3.375; stroke-dashoffset: 0; stroke: #666666; stroke-width: 1.5"/>
   </g>
   <g id="line2d_21">
    <path d="M 232.721487 150.66 
L 232.721487 182.389271 
" clip-path="url(#p880aa79898)" style="fill: none; stroke-dasharray: 6.75,6.75; stroke-dashoffset: 0; stroke: #666666; stroke-width: 1.5"/>
   </g>
   <g id="line2d_22">
    <path d="M 247.459141 150.66 
L 247.459141 181.976412 
" clip-path="url(#p880aa79898)" style="fill: none; stroke-dasharray: 3.375,3.375; stroke-dashoffset: 0; stroke: #666666; stroke-width: 1.5"/>
   </g>
   <g id="line2d_23">
    <path d="M 332.37 134.028 
L 337.95 134.028 
L 337.95 167.292 
L 332.37 167.292 
" style="fill: none; stroke: #333333; stroke-width: 1.5; stroke-linecap: square"/>
   </g>
   <g id="line2d_24">
    <path d="M 332.37 50.868 
L 337.95 50.868 
L 337.95 84.132 
L 332.37 84.132 
" style="fill: none; stroke: #333333; stroke-width: 1.5; stroke-linecap: square"/>
   </g>
   <g id="line2d_25">
    <path d="M 360.11 50.868 
L 361 50.868 
M 361 134.028 
L 360.11 134.028 
" style="fill: none; stroke: #333333; stroke-width: 1.5; stroke-linecap: square"/>
   </g>
   <g id="line2d_26">
    <path style="fill: none; stroke: #333333; stroke-width: 1.5; stroke-linecap: square"/>
   </g>
   <g id="patch_5">
    <path d="M 45 192.24 
L 45 25.92 
" style="fill: none; stroke: #000000; stroke-width: 0.8; stroke-linejoin: miter; stroke-linecap: square"/>
   </g>
   <g id="patch_6">
    <path d="M 45 192.24 
L 324 192.24 
" style="fill: none; stroke: #000000; stroke-width: 0.8; stroke-linejoin: miter; stroke-linecap: square"/>
   </g>
   <g id="text_12">
    <text style="font: 10px 'DejaVu Sans', 'Bitstream Vera Sans', 'Computer Modern Sans Serif', 'Lucida Grande', 'Verdana', 'Geneva', 'Lucid', 'Arial', 'Helvetica', 'Avant Garde', sans-serif; text-anchor: middle" x="341.029687" y="150.66" transform="rotate(-270 341.029687 150.66)">****</text>
   </g>
   <g id="text_13">
    <text style="font: 10px 'DejaVu Sans', 'Bitstream Vera Sans', 'Computer Modern Sans Serif', 'Lucida Grande', 'Verdana', 'Geneva', 'Lucid', 'Arial', 'Helvetica', 'Avant Garde', sans-serif; text-anchor: middle" x="341.029687" y="67.5" transform="rotate(-270 341.029687 67.5)">****</text>
   </g>
   <g id="text_14">
    <text style="font: 10px 'DejaVu Sans', 'Bitstream Vera Sans', 'Computer Modern Sans Serif', 'Lucida Grande', 'Verdana', 'Geneva', 'Lucid', 'Arial', 'Helvetica', 'Avant Garde', sans-serif; text-anchor: middle" x="368.769687" y="92.448" transform="rotate(-270 368.769687 92.448)">****</text>
   </g>
   <g id="text_15">
    <text style="font: 10px 'DejaVu Sans', 'Bitstream Vera Sans', 'Computer Modern Sans Serif', 'Lucida Grande', 'Verdana', 'Geneva', 'Lucid', 'Arial', 'Helvetica', 'Avant Garde', sans-serif; text-anchor: middle" x="396.509687" y="125.712" transform="rotate(-270 396.509687 125.712)">****</text>
   </g>
   <g id="legend_1">
    <g id="patch_7">
     <path d="M 233.339063 63.27625 
L 317 63.27625 
Q 319 63.27625 319 61.27625 
L 319 32.92 
Q 319 30.92 317 30.92 
L 233.339063 30.92 
Q 231.339063 30.92 231.339063 32.92 
L 231.339063 61.27625 
Q 231.339063 63.27625 233.339063 63.27625 
z
" style="fill: #ffffff; opacity: 0.8; stroke: #cccccc; stroke-linejoin: miter"/>
    </g>
    <g id="patch_8">
     <path d="M 235.339063 42.518437 
L 255.339063 42.518437 
L 255.339063 35.518437 
L 235.339063 35.518437 
z
" style="fill: #dddddd; stroke: #666666; stroke-width: 0.75; stroke-linejoin: miter"/>
    </g>
    <g id="text_16">
     <text style="font: 10px 'DejaVu Sans', 'Bitstream Vera Sans', 'Computer Modern Sans Serif', 'Lucida Grande', 'Verdana', 'Geneva', 'Lucid', 'Arial', 'Helvetica', 'Avant Garde', sans-serif; text-anchor: start" x="263.339063" y="42.518437" transform="rotate(-0 263.339063 42.518437)">cytoplasm</text>
    </g>
    <g id="patch_9">
     <path d="M 235.339063 57.196562 
L 255.339063 57.196562 
L 255.339063 50.196562 
L 235.339063 50.196562 
z
" style="fill: #aaaaaa; stroke: #666666; stroke-width: 0.75; stroke-linejoin: miter"/>
    </g>
    <g id="text_17">
     <text style="font: 10px 'DejaVu Sans', 'Bitstream Vera Sans', 'Computer Modern Sans Serif', 'Lucida Grande', 'Verdana', 'Geneva', 'Lucid', 'Arial', 'Helvetica', 'Avant Garde', sans-serif; text-anchor: start" x="263.339063" y="57.196562" transform="rotate(-0 263.339063 57.196562)">nucleus</text>
    </g>
   </g>
  </g>
 </g>
 <defs>
  <clipPath id="p880aa79898">
   <rect x="45" y="25.92" width="279" height="166.32"/>
  </clipPath>
 </defs>
</svg>
